<?xml version="1.0" encoding="utf-8" standalone="no"?>
<!DOCTYPE svg PUBLIC "-//W3C//DTD SVG 1.1//EN"
  "http://www.w3.org/Graphics/SVG/1.1/DTD/svg11.dtd">
<svg xmlns:xlink="http://www.w3.org/1999/xlink" width="1130.4pt" height="867.196875pt" viewBox="0 0 1130.4 867.196875" xmlns="http://www.w3.org/2000/svg" version="1.1">
 <metadata>
  <rdf:RDF xmlns:dc="http://purl.org/dc/elements/1.1/" xmlns:cc="http://creativecommons.org/ns#" xmlns:rdf="http://www.w3.org/1999/02/22-rdf-syntax-ns#">
   <cc:Work>
    <dc:type rdf:resource="http://purl.org/dc/dcmitype/StillImage"/>
    <dc:date>2024-11-14T14:34:24.764277</dc:date>
    <dc:format>image/svg+xml</dc:format>
    <dc:creator>
     <cc:Agent>
      <dc:title>Matplotlib v3.9.0, https://matplotlib.org/</dc:title>
     </cc:Agent>
    </dc:creator>
   </cc:Work>
  </rdf:RDF>
 </metadata>
 <defs>
  <style type="text/css">*{stroke-linejoin: round; stroke-linecap: butt}</style>
 </defs>
 <g id="figure_1">
  <g id="patch_1">
   <path d="M 0 867.196875 
L 1130.4 867.196875 
L 1130.4 0 
L 0 0 
z
" style="fill: #ffffff"/>
  </g>
  <g id="axes_1">
   <g id="patch_2">
    <path d="M 51.84 153.136875 
L 185.76 153.136875 
Q 208.08 153.136875 208.08 136.504875 
L 208.08 86.608875 
Q 208.08 69.976875 185.76 69.976875 
L 51.84 69.976875 
Q 29.52 69.976875 29.52 86.608875 
L 29.52 136.504875 
Q 29.52 153.136875 51.84 153.136875 
z
" clip-path="url(#p06f0e7ae47)" style="fill: #fad7a0; stroke: #000000; stroke-width: 1.5; stroke-linejoin: miter"/>
   </g>
   <g id="patch_3">
    <path d="M 275.04 236.296875 
L 408.96 236.296875 
Q 431.28 236.296875 431.28 219.664875 
L 431.28 169.768875 
Q 431.28 153.136875 408.96 153.136875 
L 275.04 153.136875 
Q 252.72 153.136875 252.72 169.768875 
L 252.72 219.664875 
Q 252.72 236.296875 275.04 236.296875 
z
" clip-path="url(#p06f0e7ae47)" style="fill: #f9e79f; stroke: #000000; stroke-width: 1.5; stroke-linejoin: miter"/>
   </g>
   <g id="patch_4">
    <path d="M 721.44 236.296875 
L 855.36 236.296875 
Q 877.68 236.296875 877.68 219.664875 
L 877.68 169.768875 
Q 877.68 153.136875 855.36 153.136875 
L 721.44 153.136875 
Q 699.12 153.136875 699.12 169.768875 
L 699.12 219.664875 
Q 699.12 236.296875 721.44 236.296875 
z
" clip-path="url(#p06f0e7ae47)" style="fill: #f9e79f; stroke: #000000; stroke-width: 1.5; stroke-linejoin: miter"/>
   </g>
   <g id="patch_5">
    <path d="M 498.24 402.616875 
L 632.16 402.616875 
Q 654.48 402.616875 654.48 385.984875 
L 654.48 336.088875 
Q 654.48 319.456875 632.16 319.456875 
L 498.24 319.456875 
Q 475.92 319.456875 475.92 336.088875 
L 475.92 385.984875 
Q 475.92 402.616875 498.24 402.616875 
z
" clip-path="url(#p06f0e7ae47)" style="fill: #aed6f1; stroke: #000000; stroke-width: 1.5; stroke-linejoin: miter"/>
   </g>
   <g id="patch_6">
    <path d="M 721.44 402.616875 
L 855.36 402.616875 
Q 877.68 402.616875 877.68 385.984875 
L 877.68 336.088875 
Q 877.68 319.456875 855.36 319.456875 
L 721.44 319.456875 
Q 699.12 319.456875 699.12 336.088875 
L 699.12 385.984875 
Q 699.12 402.616875 721.44 402.616875 
z
" clip-path="url(#p06f0e7ae47)" style="fill: #f9e79f; stroke: #000000; stroke-width: 1.5; stroke-linejoin: miter"/>
   </g>
   <g id="patch_7">
    <path d="M 944.64 402.616875 
L 1078.56 402.616875 
Q 1100.88 402.616875 1100.88 385.984875 
L 1100.88 336.088875 
Q 1100.88 319.456875 1078.56 319.456875 
L 944.64 319.456875 
Q 922.32 319.456875 922.32 336.088875 
L 922.32 385.984875 
Q 922.32 402.616875 944.64 402.616875 
z
" clip-path="url(#p06f0e7ae47)" style="fill: #a9dfbf; stroke: #000000; stroke-width: 1.5; stroke-linejoin: miter"/>
   </g>
   <g id="patch_8">
    <path d="M 275.04 568.936875 
L 408.96 568.936875 
Q 431.28 568.936875 431.28 552.304875 
L 431.28 502.408875 
Q 431.28 485.776875 408.96 485.776875 
L 275.04 485.776875 
Q 252.72 485.776875 252.72 502.408875 
L 252.72 552.304875 
Q 252.72 568.936875 275.04 568.936875 
z
" clip-path="url(#p06f0e7ae47)" style="fill: #f5b7b1; stroke: #000000; stroke-width: 1.5; stroke-linejoin: miter"/>
   </g>
   <g id="patch_9">
    <path d="M 275.04 652.096875 
L 408.96 652.096875 
Q 431.28 652.096875 431.28 635.464875 
L 431.28 585.568875 
Q 431.28 568.936875 408.96 568.936875 
L 275.04 568.936875 
Q 252.72 568.936875 252.72 585.568875 
L 252.72 635.464875 
Q 252.72 652.096875 275.04 652.096875 
z
" clip-path="url(#p06f0e7ae47)" style="fill: #f5b7b1; stroke: #000000; stroke-width: 1.5; stroke-linejoin: miter"/>
   </g>
   <g id="patch_10">
    <path d="M 721.44 568.936875 
L 855.36 568.936875 
Q 877.68 568.936875 877.68 552.304875 
L 877.68 502.408875 
Q 877.68 485.776875 855.36 485.776875 
L 721.44 485.776875 
Q 699.12 485.776875 699.12 502.408875 
L 699.12 552.304875 
Q 699.12 568.936875 721.44 568.936875 
z
" clip-path="url(#p06f0e7ae47)" style="fill: #a9dfbf; stroke: #000000; stroke-width: 1.5; stroke-linejoin: miter"/>
   </g>
   <g id="patch_11">
    <path d="M 944.64 568.936875 
L 1078.56 568.936875 
Q 1100.88 568.936875 1100.88 552.304875 
L 1100.88 502.408875 
Q 1100.88 485.776875 1078.56 485.776875 
L 944.64 485.776875 
Q 922.32 485.776875 922.32 502.408875 
L 922.32 552.304875 
Q 922.32 568.936875 944.64 568.936875 
z
" clip-path="url(#p06f0e7ae47)" style="fill: #a9dfbf; stroke: #000000; stroke-width: 1.5; stroke-linejoin: miter"/>
   </g>
   <g id="patch_12">
    <path d="M 498.24 735.256875 
L 632.16 735.256875 
Q 654.48 735.256875 654.48 718.624875 
L 654.48 668.728875 
Q 654.48 652.096875 632.16 652.096875 
L 498.24 652.096875 
Q 475.92 652.096875 475.92 668.728875 
L 475.92 718.624875 
Q 475.92 735.256875 498.24 735.256875 
z
" clip-path="url(#p06f0e7ae47)" style="fill: #d7bde2; stroke: #000000; stroke-width: 1.5; stroke-linejoin: miter"/>
   </g>
   <g id="line2d_1">
    <path d="M 178.690845 122.71396 
L 282.109155 183.55979 
" clip-path="url(#p06f0e7ae47)" style="fill: none; stroke: #000000; stroke-width: 1.5; stroke-linecap: square"/>
    <defs>
     <path id="m3b450ac3c1" d="M 4 0 
L -4 -4 
L -4 4 
z
" style="stroke: #000000; stroke-linejoin: miter"/>
    </defs>
    <g clip-path="url(#p06f0e7ae47)">
     <use xlink:href="#m3b450ac3c1" x="178.690845" y="122.71396" style="stroke: #000000; stroke-linejoin: miter"/>
     <use xlink:href="#m3b450ac3c1" x="282.109155" y="183.55979" style="stroke: #000000; stroke-linejoin: miter"/>
    </g>
   </g>
   <g id="line2d_2">
    <path d="M 389.34787 212.357775 
L 517.85213 343.395975 
" clip-path="url(#p06f0e7ae47)" style="fill: none; stroke: #000000; stroke-width: 1.5; stroke-linecap: square"/>
    <g clip-path="url(#p06f0e7ae47)">
     <use xlink:href="#m3b450ac3c1" x="389.34787" y="212.357775" style="stroke: #000000; stroke-linejoin: miter"/>
     <use xlink:href="#m3b450ac3c1" x="517.85213" y="343.395975" style="stroke: #000000; stroke-linejoin: miter"/>
    </g>
   </g>
   <g id="line2d_3">
    <path d="M 612.54787 343.395975 
L 741.05213 212.357775 
" clip-path="url(#p06f0e7ae47)" style="fill: none; stroke: #000000; stroke-width: 1.5; stroke-linecap: square"/>
    <g clip-path="url(#p06f0e7ae47)">
     <use xlink:href="#m3b450ac3c1" x="612.54787" y="343.395975" style="stroke: #000000; stroke-linejoin: miter"/>
     <use xlink:href="#m3b450ac3c1" x="741.05213" y="212.357775" style="stroke: #000000; stroke-linejoin: miter"/>
    </g>
   </g>
   <g id="line2d_4">
    <path d="M 741.05213 212.357775 
L 612.54787 343.395975 
" clip-path="url(#p06f0e7ae47)" style="fill: none; stroke: #000000; stroke-width: 1.5; stroke-linecap: square"/>
    <g clip-path="url(#p06f0e7ae47)">
     <use xlink:href="#m3b450ac3c1" x="741.05213" y="212.357775" style="stroke: #000000; stroke-linejoin: miter"/>
     <use xlink:href="#m3b450ac3c1" x="612.54787" y="343.395975" style="stroke: #000000; stroke-linejoin: miter"/>
    </g>
   </g>
   <g id="line2d_5">
    <path d="M 632.16 361.036875 
L 721.44 361.036875 
" clip-path="url(#p06f0e7ae47)" style="fill: none; stroke: #000000; stroke-width: 1.5; stroke-linecap: square"/>
    <g clip-path="url(#p06f0e7ae47)">
     <use xlink:href="#m3b450ac3c1" x="632.16" y="361.036875" style="stroke: #000000; stroke-linejoin: miter"/>
     <use xlink:href="#m3b450ac3c1" x="721.44" y="361.036875" style="stroke: #000000; stroke-linejoin: miter"/>
    </g>
   </g>
   <g id="line2d_6">
    <path d="M 721.44 361.036875 
L 632.16 361.036875 
" clip-path="url(#p06f0e7ae47)" style="fill: none; stroke: #000000; stroke-width: 1.5; stroke-linecap: square"/>
    <g clip-path="url(#p06f0e7ae47)">
     <use xlink:href="#m3b450ac3c1" x="721.44" y="361.036875" style="stroke: #000000; stroke-linejoin: miter"/>
     <use xlink:href="#m3b450ac3c1" x="632.16" y="361.036875" style="stroke: #000000; stroke-linejoin: miter"/>
    </g>
   </g>
   <g id="line2d_7">
    <path d="M 632.16 361.036875 
L 944.64 361.036875 
" clip-path="url(#p06f0e7ae47)" style="fill: none; stroke: #000000; stroke-width: 1.5; stroke-linecap: square"/>
    <g clip-path="url(#p06f0e7ae47)">
     <use xlink:href="#m3b450ac3c1" x="632.16" y="361.036875" style="stroke: #000000; stroke-linejoin: miter"/>
     <use xlink:href="#m3b450ac3c1" x="944.64" y="361.036875" style="stroke: #000000; stroke-linejoin: miter"/>
    </g>
   </g>
   <g id="line2d_8">
    <path d="M 517.85213 378.677775 
L 389.34787 509.715975 
" clip-path="url(#p06f0e7ae47)" style="fill: none; stroke: #000000; stroke-width: 1.5; stroke-linecap: square"/>
    <g clip-path="url(#p06f0e7ae47)">
     <use xlink:href="#m3b450ac3c1" x="517.85213" y="378.677775" style="stroke: #000000; stroke-linejoin: miter"/>
     <use xlink:href="#m3b450ac3c1" x="389.34787" y="509.715975" style="stroke: #000000; stroke-linejoin: miter"/>
    </g>
   </g>
   <g id="line2d_9">
    <path d="M 528.057275 381.794866 
L 379.142725 589.758884 
" clip-path="url(#p06f0e7ae47)" style="fill: none; stroke: #000000; stroke-width: 1.5; stroke-linecap: square"/>
    <g clip-path="url(#p06f0e7ae47)">
     <use xlink:href="#m3b450ac3c1" x="528.057275" y="381.794866" style="stroke: #000000; stroke-linejoin: miter"/>
     <use xlink:href="#m3b450ac3c1" x="379.142725" y="589.758884" style="stroke: #000000; stroke-linejoin: miter"/>
    </g>
   </g>
   <g id="line2d_10">
    <path d="M 612.54787 378.677775 
L 741.05213 509.715975 
" clip-path="url(#p06f0e7ae47)" style="fill: none; stroke: #000000; stroke-width: 1.5; stroke-linecap: square"/>
    <g clip-path="url(#p06f0e7ae47)">
     <use xlink:href="#m3b450ac3c1" x="612.54787" y="378.677775" style="stroke: #000000; stroke-linejoin: miter"/>
     <use xlink:href="#m3b450ac3c1" x="741.05213" y="509.715975" style="stroke: #000000; stroke-linejoin: miter"/>
    </g>
   </g>
   <g id="line2d_11">
    <path d="M 625.090845 372.19396 
L 951.709155 516.19979 
" clip-path="url(#p06f0e7ae47)" style="fill: none; stroke: #000000; stroke-width: 1.5; stroke-linecap: square"/>
    <g clip-path="url(#p06f0e7ae47)">
     <use xlink:href="#m3b450ac3c1" x="625.090845" y="372.19396" style="stroke: #000000; stroke-linejoin: miter"/>
     <use xlink:href="#m3b450ac3c1" x="951.709155" y="516.19979" style="stroke: #000000; stroke-linejoin: miter"/>
    </g>
   </g>
   <g id="line2d_12">
    <path d="M 565.2 385.984875 
L 565.2 668.728875 
" clip-path="url(#p06f0e7ae47)" style="fill: none; stroke: #000000; stroke-width: 1.5; stroke-linecap: square"/>
    <g clip-path="url(#p06f0e7ae47)">
     <use xlink:href="#m3b450ac3c1" x="565.2" y="385.984875" style="stroke: #000000; stroke-linejoin: miter"/>
     <use xlink:href="#m3b450ac3c1" x="565.2" y="668.728875" style="stroke: #000000; stroke-linejoin: miter"/>
    </g>
   </g>
   <g id="line2d_13">
    <path d="M 389.34787 509.715975 
L 517.85213 378.677775 
" clip-path="url(#p06f0e7ae47)" style="fill: none; stroke: #000000; stroke-width: 1.5; stroke-linecap: square"/>
    <g clip-path="url(#p06f0e7ae47)">
     <use xlink:href="#m3b450ac3c1" x="389.34787" y="509.715975" style="stroke: #000000; stroke-linejoin: miter"/>
     <use xlink:href="#m3b450ac3c1" x="517.85213" y="378.677775" style="stroke: #000000; stroke-linejoin: miter"/>
    </g>
   </g>
   <g id="line2d_14">
    <path d="M 379.142725 589.758884 
L 528.057275 381.794866 
" clip-path="url(#p06f0e7ae47)" style="fill: none; stroke: #000000; stroke-width: 1.5; stroke-linecap: square"/>
    <g clip-path="url(#p06f0e7ae47)">
     <use xlink:href="#m3b450ac3c1" x="379.142725" y="589.758884" style="stroke: #000000; stroke-linejoin: miter"/>
     <use xlink:href="#m3b450ac3c1" x="528.057275" y="381.794866" style="stroke: #000000; stroke-linejoin: miter"/>
    </g>
   </g>
   <g id="line2d_15">
    <path d="M 855.36 527.356875 
L 944.64 527.356875 
" clip-path="url(#p06f0e7ae47)" style="fill: none; stroke: #000000; stroke-width: 1.5; stroke-linecap: square"/>
    <g clip-path="url(#p06f0e7ae47)">
     <use xlink:href="#m3b450ac3c1" x="855.36" y="527.356875" style="stroke: #000000; stroke-linejoin: miter"/>
     <use xlink:href="#m3b450ac3c1" x="944.64" y="527.356875" style="stroke: #000000; stroke-linejoin: miter"/>
    </g>
   </g>
   <g id="text_1">
    <!-- User -->
    <g transform="translate(105.907031 114.31625) scale(0.1 -0.1)">
     <defs>
      <path id="DejaVuSans-Bold-55" d="M 588 4666 
L 1791 4666 
L 1791 1869 
Q 1791 1291 1980 1042 
Q 2169 794 2597 794 
Q 3028 794 3217 1042 
Q 3406 1291 3406 1869 
L 3406 4666 
L 4609 4666 
L 4609 1869 
Q 4609 878 4112 393 
Q 3616 -91 2597 -91 
Q 1581 -91 1084 393 
Q 588 878 588 1869 
L 588 4666 
z
" transform="scale(0.015625)"/>
      <path id="DejaVuSans-Bold-73" d="M 3272 3391 
L 3272 2541 
Q 2913 2691 2578 2766 
Q 2244 2841 1947 2841 
Q 1628 2841 1473 2761 
Q 1319 2681 1319 2516 
Q 1319 2381 1436 2309 
Q 1553 2238 1856 2203 
L 2053 2175 
Q 2913 2066 3209 1816 
Q 3506 1566 3506 1031 
Q 3506 472 3093 190 
Q 2681 -91 1863 -91 
Q 1516 -91 1145 -36 
Q 775 19 384 128 
L 384 978 
Q 719 816 1070 734 
Q 1422 653 1784 653 
Q 2113 653 2278 743 
Q 2444 834 2444 1013 
Q 2444 1163 2330 1236 
Q 2216 1309 1875 1350 
L 1678 1375 
Q 931 1469 631 1722 
Q 331 1975 331 2491 
Q 331 3047 712 3315 
Q 1094 3584 1881 3584 
Q 2191 3584 2531 3537 
Q 2872 3491 3272 3391 
z
" transform="scale(0.015625)"/>
      <path id="DejaVuSans-Bold-65" d="M 4031 1759 
L 4031 1441 
L 1416 1441 
Q 1456 1047 1700 850 
Q 1944 653 2381 653 
Q 2734 653 3104 758 
Q 3475 863 3866 1075 
L 3866 213 
Q 3469 63 3072 -14 
Q 2675 -91 2278 -91 
Q 1328 -91 801 392 
Q 275 875 275 1747 
Q 275 2603 792 3093 
Q 1309 3584 2216 3584 
Q 3041 3584 3536 3087 
Q 4031 2591 4031 1759 
z
M 2881 2131 
Q 2881 2450 2695 2645 
Q 2509 2841 2209 2841 
Q 1884 2841 1681 2658 
Q 1478 2475 1428 2131 
L 2881 2131 
z
" transform="scale(0.015625)"/>
      <path id="DejaVuSans-Bold-72" d="M 3138 2547 
Q 2991 2616 2845 2648 
Q 2700 2681 2553 2681 
Q 2122 2681 1889 2404 
Q 1656 2128 1656 1613 
L 1656 0 
L 538 0 
L 538 3500 
L 1656 3500 
L 1656 2925 
Q 1872 3269 2151 3426 
Q 2431 3584 2822 3584 
Q 2878 3584 2943 3579 
Q 3009 3575 3134 3559 
L 3138 2547 
z
" transform="scale(0.015625)"/>
     </defs>
     <use xlink:href="#DejaVuSans-Bold-55"/>
     <use xlink:href="#DejaVuSans-Bold-73" x="81.201172"/>
     <use xlink:href="#DejaVuSans-Bold-65" x="140.722656"/>
     <use xlink:href="#DejaVuSans-Bold-72" x="208.544922"/>
    </g>
   </g>
   <g id="text_2">
    <!-- Twitch API -->
    <g transform="translate(312.757031 197.47625) scale(0.1 -0.1)">
     <defs>
      <path id="DejaVuSans-Bold-54" d="M 31 4666 
L 4331 4666 
L 4331 3756 
L 2784 3756 
L 2784 0 
L 1581 0 
L 1581 3756 
L 31 3756 
L 31 4666 
z
" transform="scale(0.015625)"/>
      <path id="DejaVuSans-Bold-77" d="M 225 3500 
L 1313 3500 
L 1900 1088 
L 2491 3500 
L 3425 3500 
L 4013 1113 
L 4603 3500 
L 5691 3500 
L 4769 0 
L 3547 0 
L 2956 2406 
L 2369 0 
L 1147 0 
L 225 3500 
z
" transform="scale(0.015625)"/>
      <path id="DejaVuSans-Bold-69" d="M 538 3500 
L 1656 3500 
L 1656 0 
L 538 0 
L 538 3500 
z
M 538 4863 
L 1656 4863 
L 1656 3950 
L 538 3950 
L 538 4863 
z
" transform="scale(0.015625)"/>
      <path id="DejaVuSans-Bold-74" d="M 1759 4494 
L 1759 3500 
L 2913 3500 
L 2913 2700 
L 1759 2700 
L 1759 1216 
Q 1759 972 1856 886 
Q 1953 800 2241 800 
L 2816 800 
L 2816 0 
L 1856 0 
Q 1194 0 917 276 
Q 641 553 641 1216 
L 641 2700 
L 84 2700 
L 84 3500 
L 641 3500 
L 641 4494 
L 1759 4494 
z
" transform="scale(0.015625)"/>
      <path id="DejaVuSans-Bold-63" d="M 3366 3391 
L 3366 2478 
Q 3138 2634 2908 2709 
Q 2678 2784 2431 2784 
Q 1963 2784 1702 2511 
Q 1441 2238 1441 1747 
Q 1441 1256 1702 982 
Q 1963 709 2431 709 
Q 2694 709 2930 787 
Q 3166 866 3366 1019 
L 3366 103 
Q 3103 6 2833 -42 
Q 2563 -91 2291 -91 
Q 1344 -91 809 395 
Q 275 881 275 1747 
Q 275 2613 809 3098 
Q 1344 3584 2291 3584 
Q 2566 3584 2833 3536 
Q 3100 3488 3366 3391 
z
" transform="scale(0.015625)"/>
      <path id="DejaVuSans-Bold-68" d="M 4056 2131 
L 4056 0 
L 2931 0 
L 2931 347 
L 2931 1625 
Q 2931 2084 2911 2256 
Q 2891 2428 2841 2509 
Q 2775 2619 2662 2680 
Q 2550 2741 2406 2741 
Q 2056 2741 1856 2470 
Q 1656 2200 1656 1722 
L 1656 0 
L 538 0 
L 538 4863 
L 1656 4863 
L 1656 2988 
Q 1909 3294 2193 3439 
Q 2478 3584 2822 3584 
Q 3428 3584 3742 3212 
Q 4056 2841 4056 2131 
z
" transform="scale(0.015625)"/>
      <path id="DejaVuSans-Bold-20" transform="scale(0.015625)"/>
      <path id="DejaVuSans-Bold-41" d="M 3419 850 
L 1538 850 
L 1241 0 
L 31 0 
L 1759 4666 
L 3194 4666 
L 4922 0 
L 3713 0 
L 3419 850 
z
M 1838 1716 
L 3116 1716 
L 2478 3572 
L 1838 1716 
z
" transform="scale(0.015625)"/>
      <path id="DejaVuSans-Bold-50" d="M 588 4666 
L 2584 4666 
Q 3475 4666 3951 4270 
Q 4428 3875 4428 3144 
Q 4428 2409 3951 2014 
Q 3475 1619 2584 1619 
L 1791 1619 
L 1791 0 
L 588 0 
L 588 4666 
z
M 1791 3794 
L 1791 2491 
L 2456 2491 
Q 2806 2491 2997 2661 
Q 3188 2831 3188 3144 
Q 3188 3456 2997 3625 
Q 2806 3794 2456 3794 
L 1791 3794 
z
" transform="scale(0.015625)"/>
      <path id="DejaVuSans-Bold-49" d="M 588 4666 
L 1791 4666 
L 1791 0 
L 588 0 
L 588 4666 
z
" transform="scale(0.015625)"/>
     </defs>
     <use xlink:href="#DejaVuSans-Bold-54"/>
     <use xlink:href="#DejaVuSans-Bold-77" x="57.212891"/>
     <use xlink:href="#DejaVuSans-Bold-69" x="149.595703"/>
     <use xlink:href="#DejaVuSans-Bold-74" x="183.873047"/>
     <use xlink:href="#DejaVuSans-Bold-63" x="231.675781"/>
     <use xlink:href="#DejaVuSans-Bold-68" x="290.953125"/>
     <use xlink:href="#DejaVuSans-Bold-20" x="362.144531"/>
     <use xlink:href="#DejaVuSans-Bold-41" x="396.958984"/>
     <use xlink:href="#DejaVuSans-Bold-50" x="474.351562"/>
     <use xlink:href="#DejaVuSans-Bold-49" x="547.642578"/>
    </g>
   </g>
   <g id="text_3">
    <!-- OpenAI API -->
    <g transform="translate(756.754687 191.877344) scale(0.1 -0.1)">
     <defs>
      <path id="DejaVuSans-Bold-4f" d="M 2719 3878 
Q 2169 3878 1866 3472 
Q 1563 3066 1563 2328 
Q 1563 1594 1866 1187 
Q 2169 781 2719 781 
Q 3272 781 3575 1187 
Q 3878 1594 3878 2328 
Q 3878 3066 3575 3472 
Q 3272 3878 2719 3878 
z
M 2719 4750 
Q 3844 4750 4481 4106 
Q 5119 3463 5119 2328 
Q 5119 1197 4481 553 
Q 3844 -91 2719 -91 
Q 1597 -91 958 553 
Q 319 1197 319 2328 
Q 319 3463 958 4106 
Q 1597 4750 2719 4750 
z
" transform="scale(0.015625)"/>
      <path id="DejaVuSans-Bold-70" d="M 1656 506 
L 1656 -1331 
L 538 -1331 
L 538 3500 
L 1656 3500 
L 1656 2988 
Q 1888 3294 2169 3439 
Q 2450 3584 2816 3584 
Q 3463 3584 3878 3070 
Q 4294 2556 4294 1747 
Q 4294 938 3878 423 
Q 3463 -91 2816 -91 
Q 2450 -91 2169 54 
Q 1888 200 1656 506 
z
M 2400 2772 
Q 2041 2772 1848 2508 
Q 1656 2244 1656 1747 
Q 1656 1250 1848 986 
Q 2041 722 2400 722 
Q 2759 722 2948 984 
Q 3138 1247 3138 1747 
Q 3138 2247 2948 2509 
Q 2759 2772 2400 2772 
z
" transform="scale(0.015625)"/>
      <path id="DejaVuSans-Bold-6e" d="M 4056 2131 
L 4056 0 
L 2931 0 
L 2931 347 
L 2931 1631 
Q 2931 2084 2911 2256 
Q 2891 2428 2841 2509 
Q 2775 2619 2662 2680 
Q 2550 2741 2406 2741 
Q 2056 2741 1856 2470 
Q 1656 2200 1656 1722 
L 1656 0 
L 538 0 
L 538 3500 
L 1656 3500 
L 1656 2988 
Q 1909 3294 2193 3439 
Q 2478 3584 2822 3584 
Q 3428 3584 3742 3212 
Q 4056 2841 4056 2131 
z
" transform="scale(0.015625)"/>
     </defs>
     <use xlink:href="#DejaVuSans-Bold-4f"/>
     <use xlink:href="#DejaVuSans-Bold-70" x="85.009766"/>
     <use xlink:href="#DejaVuSans-Bold-65" x="156.591797"/>
     <use xlink:href="#DejaVuSans-Bold-6e" x="224.414062"/>
     <use xlink:href="#DejaVuSans-Bold-41" x="295.605469"/>
     <use xlink:href="#DejaVuSans-Bold-49" x="372.998047"/>
     <use xlink:href="#DejaVuSans-Bold-20" x="410.205078"/>
     <use xlink:href="#DejaVuSans-Bold-41" x="445.019531"/>
     <use xlink:href="#DejaVuSans-Bold-50" x="522.412109"/>
     <use xlink:href="#DejaVuSans-Bold-49" x="595.703125"/>
    </g>
    <!-- (Chat Completion) -->
    <g transform="translate(736.998438 203.075156) scale(0.1 -0.1)">
     <defs>
      <path id="DejaVuSans-Bold-28" d="M 2413 -844 
L 1484 -844 
Q 1006 -72 778 623 
Q 550 1319 550 2003 
Q 550 2688 779 3389 
Q 1009 4091 1484 4856 
L 2413 4856 
Q 2013 4116 1813 3408 
Q 1613 2700 1613 2009 
Q 1613 1319 1811 609 
Q 2009 -100 2413 -844 
z
" transform="scale(0.015625)"/>
      <path id="DejaVuSans-Bold-43" d="M 4288 256 
Q 3956 84 3597 -3 
Q 3238 -91 2847 -91 
Q 1681 -91 1000 561 
Q 319 1213 319 2328 
Q 319 3447 1000 4098 
Q 1681 4750 2847 4750 
Q 3238 4750 3597 4662 
Q 3956 4575 4288 4403 
L 4288 3438 
Q 3953 3666 3628 3772 
Q 3303 3878 2944 3878 
Q 2300 3878 1931 3465 
Q 1563 3053 1563 2328 
Q 1563 1606 1931 1193 
Q 2300 781 2944 781 
Q 3303 781 3628 887 
Q 3953 994 4288 1222 
L 4288 256 
z
" transform="scale(0.015625)"/>
      <path id="DejaVuSans-Bold-61" d="M 2106 1575 
Q 1756 1575 1579 1456 
Q 1403 1338 1403 1106 
Q 1403 894 1545 773 
Q 1688 653 1941 653 
Q 2256 653 2472 879 
Q 2688 1106 2688 1447 
L 2688 1575 
L 2106 1575 
z
M 3816 1997 
L 3816 0 
L 2688 0 
L 2688 519 
Q 2463 200 2181 54 
Q 1900 -91 1497 -91 
Q 953 -91 614 226 
Q 275 544 275 1050 
Q 275 1666 698 1953 
Q 1122 2241 2028 2241 
L 2688 2241 
L 2688 2328 
Q 2688 2594 2478 2717 
Q 2269 2841 1825 2841 
Q 1466 2841 1156 2769 
Q 847 2697 581 2553 
L 581 3406 
Q 941 3494 1303 3539 
Q 1666 3584 2028 3584 
Q 2975 3584 3395 3211 
Q 3816 2838 3816 1997 
z
" transform="scale(0.015625)"/>
      <path id="DejaVuSans-Bold-6f" d="M 2203 2784 
Q 1831 2784 1636 2517 
Q 1441 2250 1441 1747 
Q 1441 1244 1636 976 
Q 1831 709 2203 709 
Q 2569 709 2762 976 
Q 2956 1244 2956 1747 
Q 2956 2250 2762 2517 
Q 2569 2784 2203 2784 
z
M 2203 3584 
Q 3106 3584 3614 3096 
Q 4122 2609 4122 1747 
Q 4122 884 3614 396 
Q 3106 -91 2203 -91 
Q 1297 -91 786 396 
Q 275 884 275 1747 
Q 275 2609 786 3096 
Q 1297 3584 2203 3584 
z
" transform="scale(0.015625)"/>
      <path id="DejaVuSans-Bold-6d" d="M 3781 2919 
Q 3994 3244 4286 3414 
Q 4578 3584 4928 3584 
Q 5531 3584 5847 3212 
Q 6163 2841 6163 2131 
L 6163 0 
L 5038 0 
L 5038 1825 
Q 5041 1866 5042 1909 
Q 5044 1953 5044 2034 
Q 5044 2406 4934 2573 
Q 4825 2741 4581 2741 
Q 4263 2741 4089 2478 
Q 3916 2216 3909 1719 
L 3909 0 
L 2784 0 
L 2784 1825 
Q 2784 2406 2684 2573 
Q 2584 2741 2328 2741 
Q 2006 2741 1831 2477 
Q 1656 2213 1656 1722 
L 1656 0 
L 531 0 
L 531 3500 
L 1656 3500 
L 1656 2988 
Q 1863 3284 2130 3434 
Q 2397 3584 2719 3584 
Q 3081 3584 3359 3409 
Q 3638 3234 3781 2919 
z
" transform="scale(0.015625)"/>
      <path id="DejaVuSans-Bold-6c" d="M 538 4863 
L 1656 4863 
L 1656 0 
L 538 0 
L 538 4863 
z
" transform="scale(0.015625)"/>
      <path id="DejaVuSans-Bold-29" d="M 513 -844 
Q 913 -100 1113 609 
Q 1313 1319 1313 2009 
Q 1313 2700 1113 3408 
Q 913 4116 513 4856 
L 1441 4856 
Q 1916 4091 2145 3389 
Q 2375 2688 2375 2003 
Q 2375 1319 2147 623 
Q 1919 -72 1441 -844 
L 513 -844 
z
" transform="scale(0.015625)"/>
     </defs>
     <use xlink:href="#DejaVuSans-Bold-28"/>
     <use xlink:href="#DejaVuSans-Bold-43" x="45.703125"/>
     <use xlink:href="#DejaVuSans-Bold-68" x="119.091797"/>
     <use xlink:href="#DejaVuSans-Bold-61" x="190.283203"/>
     <use xlink:href="#DejaVuSans-Bold-74" x="257.763672"/>
     <use xlink:href="#DejaVuSans-Bold-20" x="305.566406"/>
     <use xlink:href="#DejaVuSans-Bold-43" x="340.380859"/>
     <use xlink:href="#DejaVuSans-Bold-6f" x="413.769531"/>
     <use xlink:href="#DejaVuSans-Bold-6d" x="482.470703"/>
     <use xlink:href="#DejaVuSans-Bold-70" x="586.669922"/>
     <use xlink:href="#DejaVuSans-Bold-6c" x="658.251953"/>
     <use xlink:href="#DejaVuSans-Bold-65" x="692.529297"/>
     <use xlink:href="#DejaVuSans-Bold-74" x="760.351562"/>
     <use xlink:href="#DejaVuSans-Bold-69" x="808.154297"/>
     <use xlink:href="#DejaVuSans-Bold-6f" x="842.431641"/>
     <use xlink:href="#DejaVuSans-Bold-6e" x="911.132812"/>
     <use xlink:href="#DejaVuSans-Bold-29" x="982.324219"/>
    </g>
   </g>
   <g id="text_4">
    <!-- Twitch Bot -->
    <g transform="translate(535.715625 363.79625) scale(0.1 -0.1)">
     <defs>
      <path id="DejaVuSans-Bold-42" d="M 2456 2859 
Q 2741 2859 2887 2984 
Q 3034 3109 3034 3353 
Q 3034 3594 2887 3720 
Q 2741 3847 2456 3847 
L 1791 3847 
L 1791 2859 
L 2456 2859 
z
M 2497 819 
Q 2859 819 3042 972 
Q 3225 1125 3225 1434 
Q 3225 1738 3044 1889 
Q 2863 2041 2497 2041 
L 1791 2041 
L 1791 819 
L 2497 819 
z
M 3616 2497 
Q 4003 2384 4215 2081 
Q 4428 1778 4428 1338 
Q 4428 663 3972 331 
Q 3516 0 2584 0 
L 588 0 
L 588 4666 
L 2394 4666 
Q 3366 4666 3802 4372 
Q 4238 4078 4238 3431 
Q 4238 3091 4078 2852 
Q 3919 2613 3616 2497 
z
" transform="scale(0.015625)"/>
     </defs>
     <use xlink:href="#DejaVuSans-Bold-54"/>
     <use xlink:href="#DejaVuSans-Bold-77" x="57.212891"/>
     <use xlink:href="#DejaVuSans-Bold-69" x="149.595703"/>
     <use xlink:href="#DejaVuSans-Bold-74" x="183.873047"/>
     <use xlink:href="#DejaVuSans-Bold-63" x="231.675781"/>
     <use xlink:href="#DejaVuSans-Bold-68" x="290.953125"/>
     <use xlink:href="#DejaVuSans-Bold-20" x="362.144531"/>
     <use xlink:href="#DejaVuSans-Bold-42" x="396.958984"/>
     <use xlink:href="#DejaVuSans-Bold-6f" x="473.179688"/>
     <use xlink:href="#DejaVuSans-Bold-74" x="541.880859"/>
    </g>
   </g>
   <g id="text_5">
    <!-- ElevenLabs API -->
    <g transform="translate(745.41875 358.197344) scale(0.1 -0.1)">
     <defs>
      <path id="DejaVuSans-Bold-45" d="M 588 4666 
L 3834 4666 
L 3834 3756 
L 1791 3756 
L 1791 2888 
L 3713 2888 
L 3713 1978 
L 1791 1978 
L 1791 909 
L 3903 909 
L 3903 0 
L 588 0 
L 588 4666 
z
" transform="scale(0.015625)"/>
      <path id="DejaVuSans-Bold-76" d="M 97 3500 
L 1216 3500 
L 2088 1081 
L 2956 3500 
L 4078 3500 
L 2700 0 
L 1472 0 
L 97 3500 
z
" transform="scale(0.015625)"/>
      <path id="DejaVuSans-Bold-4c" d="M 588 4666 
L 1791 4666 
L 1791 909 
L 3903 909 
L 3903 0 
L 588 0 
L 588 4666 
z
" transform="scale(0.015625)"/>
      <path id="DejaVuSans-Bold-62" d="M 2400 722 
Q 2759 722 2948 984 
Q 3138 1247 3138 1747 
Q 3138 2247 2948 2509 
Q 2759 2772 2400 2772 
Q 2041 2772 1848 2508 
Q 1656 2244 1656 1747 
Q 1656 1250 1848 986 
Q 2041 722 2400 722 
z
M 1656 2988 
Q 1888 3294 2169 3439 
Q 2450 3584 2816 3584 
Q 3463 3584 3878 3070 
Q 4294 2556 4294 1747 
Q 4294 938 3878 423 
Q 3463 -91 2816 -91 
Q 2450 -91 2169 54 
Q 1888 200 1656 506 
L 1656 0 
L 538 0 
L 538 4863 
L 1656 4863 
L 1656 2988 
z
" transform="scale(0.015625)"/>
     </defs>
     <use xlink:href="#DejaVuSans-Bold-45"/>
     <use xlink:href="#DejaVuSans-Bold-6c" x="68.310547"/>
     <use xlink:href="#DejaVuSans-Bold-65" x="102.587891"/>
     <use xlink:href="#DejaVuSans-Bold-76" x="170.410156"/>
     <use xlink:href="#DejaVuSans-Bold-65" x="235.595703"/>
     <use xlink:href="#DejaVuSans-Bold-6e" x="303.417969"/>
     <use xlink:href="#DejaVuSans-Bold-4c" x="374.609375"/>
     <use xlink:href="#DejaVuSans-Bold-61" x="438.330078"/>
     <use xlink:href="#DejaVuSans-Bold-62" x="505.810547"/>
     <use xlink:href="#DejaVuSans-Bold-73" x="577.392578"/>
     <use xlink:href="#DejaVuSans-Bold-20" x="636.914062"/>
     <use xlink:href="#DejaVuSans-Bold-41" x="671.728516"/>
     <use xlink:href="#DejaVuSans-Bold-50" x="749.121094"/>
     <use xlink:href="#DejaVuSans-Bold-49" x="822.412109"/>
    </g>
    <!-- (Voice Generation) -->
    <g transform="translate(735.605469 369.395156) scale(0.1 -0.1)">
     <defs>
      <path id="DejaVuSans-Bold-56" d="M 31 4666 
L 1241 4666 
L 2478 1222 
L 3713 4666 
L 4922 4666 
L 3194 0 
L 1759 0 
L 31 4666 
z
" transform="scale(0.015625)"/>
      <path id="DejaVuSans-Bold-47" d="M 4781 347 
Q 4331 128 3847 18 
Q 3363 -91 2847 -91 
Q 1681 -91 1000 561 
Q 319 1213 319 2328 
Q 319 3456 1012 4103 
Q 1706 4750 2913 4750 
Q 3378 4750 3804 4662 
Q 4231 4575 4609 4403 
L 4609 3438 
Q 4219 3659 3833 3768 
Q 3447 3878 3059 3878 
Q 2341 3878 1952 3476 
Q 1563 3075 1563 2328 
Q 1563 1588 1938 1184 
Q 2313 781 3003 781 
Q 3191 781 3352 804 
Q 3513 828 3641 878 
L 3641 1784 
L 2906 1784 
L 2906 2591 
L 4781 2591 
L 4781 347 
z
" transform="scale(0.015625)"/>
     </defs>
     <use xlink:href="#DejaVuSans-Bold-28"/>
     <use xlink:href="#DejaVuSans-Bold-56" x="45.703125"/>
     <use xlink:href="#DejaVuSans-Bold-6f" x="117.595703"/>
     <use xlink:href="#DejaVuSans-Bold-69" x="186.296875"/>
     <use xlink:href="#DejaVuSans-Bold-63" x="220.574219"/>
     <use xlink:href="#DejaVuSans-Bold-65" x="279.851562"/>
     <use xlink:href="#DejaVuSans-Bold-20" x="347.673828"/>
     <use xlink:href="#DejaVuSans-Bold-47" x="382.488281"/>
     <use xlink:href="#DejaVuSans-Bold-65" x="464.568359"/>
     <use xlink:href="#DejaVuSans-Bold-6e" x="532.390625"/>
     <use xlink:href="#DejaVuSans-Bold-65" x="603.582031"/>
     <use xlink:href="#DejaVuSans-Bold-72" x="671.404297"/>
     <use xlink:href="#DejaVuSans-Bold-61" x="720.720703"/>
     <use xlink:href="#DejaVuSans-Bold-74" x="788.201172"/>
     <use xlink:href="#DejaVuSans-Bold-69" x="836.003906"/>
     <use xlink:href="#DejaVuSans-Bold-6f" x="870.28125"/>
     <use xlink:href="#DejaVuSans-Bold-6e" x="938.982422"/>
     <use xlink:href="#DejaVuSans-Bold-29" x="1010.173828"/>
    </g>
   </g>
   <g id="text_6">
    <!-- Logging &amp; -->
    <g transform="translate(982.867969 358.119219) scale(0.1 -0.1)">
     <defs>
      <path id="DejaVuSans-Bold-67" d="M 2919 594 
Q 2688 288 2409 144 
Q 2131 0 1766 0 
Q 1125 0 706 504 
Q 288 1009 288 1791 
Q 288 2575 706 3076 
Q 1125 3578 1766 3578 
Q 2131 3578 2409 3434 
Q 2688 3291 2919 2981 
L 2919 3500 
L 4044 3500 
L 4044 353 
Q 4044 -491 3511 -936 
Q 2978 -1381 1966 -1381 
Q 1638 -1381 1331 -1331 
Q 1025 -1281 716 -1178 
L 716 -306 
Q 1009 -475 1290 -558 
Q 1572 -641 1856 -641 
Q 2406 -641 2662 -400 
Q 2919 -159 2919 353 
L 2919 594 
z
M 2181 2772 
Q 1834 2772 1640 2515 
Q 1447 2259 1447 1791 
Q 1447 1309 1634 1061 
Q 1822 813 2181 813 
Q 2531 813 2725 1069 
Q 2919 1325 2919 1791 
Q 2919 2259 2725 2515 
Q 2531 2772 2181 2772 
z
" transform="scale(0.015625)"/>
      <path id="DejaVuSans-Bold-26" d="M 2497 3097 
L 3775 1691 
Q 3941 1909 4027 2181 
Q 4113 2453 4128 2797 
L 5100 2797 
Q 5053 2228 4879 1784 
Q 4706 1341 4397 1006 
L 5313 0 
L 3988 0 
L 3681 341 
Q 3353 122 2990 15 
Q 2628 -91 2222 -91 
Q 1400 -91 892 342 
Q 384 775 384 1459 
Q 384 1916 607 2267 
Q 831 2619 1338 2950 
Q 1206 3116 1143 3281 
Q 1081 3447 1081 3628 
Q 1081 4138 1478 4444 
Q 1875 4750 2534 4750 
Q 2819 4750 3126 4704 
Q 3434 4659 3769 4569 
L 3769 3700 
Q 3475 3850 3212 3922 
Q 2950 3994 2700 3994 
Q 2459 3994 2326 3901 
Q 2194 3809 2194 3641 
Q 2194 3534 2270 3398 
Q 2347 3263 2497 3097 
z
M 1875 2322 
Q 1672 2175 1569 1989 
Q 1466 1803 1466 1581 
Q 1466 1222 1731 969 
Q 1997 716 2369 716 
Q 2578 716 2759 780 
Q 2941 844 3097 972 
L 1875 2322 
z
" transform="scale(0.015625)"/>
     </defs>
     <use xlink:href="#DejaVuSans-Bold-4c"/>
     <use xlink:href="#DejaVuSans-Bold-6f" x="63.720703"/>
     <use xlink:href="#DejaVuSans-Bold-67" x="132.421875"/>
     <use xlink:href="#DejaVuSans-Bold-67" x="204.003906"/>
     <use xlink:href="#DejaVuSans-Bold-69" x="275.585938"/>
     <use xlink:href="#DejaVuSans-Bold-6e" x="309.863281"/>
     <use xlink:href="#DejaVuSans-Bold-67" x="381.054688"/>
     <use xlink:href="#DejaVuSans-Bold-20" x="452.636719"/>
     <use xlink:href="#DejaVuSans-Bold-26" x="487.451172"/>
    </g>
    <!-- Chat Storage -->
    <g transform="translate(974.630469 369.395156) scale(0.1 -0.1)">
     <defs>
      <path id="DejaVuSans-Bold-53" d="M 3834 4519 
L 3834 3531 
Q 3450 3703 3084 3790 
Q 2719 3878 2394 3878 
Q 1963 3878 1756 3759 
Q 1550 3641 1550 3391 
Q 1550 3203 1689 3098 
Q 1828 2994 2194 2919 
L 2706 2816 
Q 3484 2659 3812 2340 
Q 4141 2022 4141 1434 
Q 4141 663 3683 286 
Q 3225 -91 2284 -91 
Q 1841 -91 1394 -6 
Q 947 78 500 244 
L 500 1259 
Q 947 1022 1364 901 
Q 1781 781 2169 781 
Q 2563 781 2772 912 
Q 2981 1044 2981 1288 
Q 2981 1506 2839 1625 
Q 2697 1744 2272 1838 
L 1806 1941 
Q 1106 2091 782 2419 
Q 459 2747 459 3303 
Q 459 4000 909 4375 
Q 1359 4750 2203 4750 
Q 2588 4750 2994 4692 
Q 3400 4634 3834 4519 
z
" transform="scale(0.015625)"/>
     </defs>
     <use xlink:href="#DejaVuSans-Bold-43"/>
     <use xlink:href="#DejaVuSans-Bold-68" x="73.388672"/>
     <use xlink:href="#DejaVuSans-Bold-61" x="144.580078"/>
     <use xlink:href="#DejaVuSans-Bold-74" x="212.060547"/>
     <use xlink:href="#DejaVuSans-Bold-20" x="259.863281"/>
     <use xlink:href="#DejaVuSans-Bold-53" x="294.677734"/>
     <use xlink:href="#DejaVuSans-Bold-74" x="366.699219"/>
     <use xlink:href="#DejaVuSans-Bold-6f" x="414.501953"/>
     <use xlink:href="#DejaVuSans-Bold-72" x="483.203125"/>
     <use xlink:href="#DejaVuSans-Bold-61" x="532.519531"/>
     <use xlink:href="#DejaVuSans-Bold-67" x="600"/>
     <use xlink:href="#DejaVuSans-Bold-65" x="671.582031"/>
    </g>
   </g>
   <g id="text_7">
    <!-- .env Configuration -->
    <g transform="translate(289.520312 524.478281) scale(0.1 -0.1)">
     <defs>
      <path id="DejaVuSans-Bold-2e" d="M 653 1209 
L 1778 1209 
L 1778 0 
L 653 0 
L 653 1209 
z
" transform="scale(0.015625)"/>
      <path id="DejaVuSans-Bold-66" d="M 2841 4863 
L 2841 4128 
L 2222 4128 
Q 1984 4128 1890 4042 
Q 1797 3956 1797 3744 
L 1797 3500 
L 2753 3500 
L 2753 2700 
L 1797 2700 
L 1797 0 
L 678 0 
L 678 2700 
L 122 2700 
L 122 3500 
L 678 3500 
L 678 3744 
Q 678 4316 997 4589 
Q 1316 4863 1984 4863 
L 2841 4863 
z
" transform="scale(0.015625)"/>
      <path id="DejaVuSans-Bold-75" d="M 500 1363 
L 500 3500 
L 1625 3500 
L 1625 3150 
Q 1625 2866 1622 2436 
Q 1619 2006 1619 1863 
Q 1619 1441 1641 1255 
Q 1663 1069 1716 984 
Q 1784 875 1895 815 
Q 2006 756 2150 756 
Q 2500 756 2700 1025 
Q 2900 1294 2900 1772 
L 2900 3500 
L 4019 3500 
L 4019 0 
L 2900 0 
L 2900 506 
Q 2647 200 2364 54 
Q 2081 -91 1741 -91 
Q 1134 -91 817 281 
Q 500 653 500 1363 
z
" transform="scale(0.015625)"/>
     </defs>
     <use xlink:href="#DejaVuSans-Bold-2e"/>
     <use xlink:href="#DejaVuSans-Bold-65" x="37.988281"/>
     <use xlink:href="#DejaVuSans-Bold-6e" x="105.810547"/>
     <use xlink:href="#DejaVuSans-Bold-76" x="177.001953"/>
     <use xlink:href="#DejaVuSans-Bold-20" x="242.1875"/>
     <use xlink:href="#DejaVuSans-Bold-43" x="277.001953"/>
     <use xlink:href="#DejaVuSans-Bold-6f" x="350.390625"/>
     <use xlink:href="#DejaVuSans-Bold-6e" x="419.091797"/>
     <use xlink:href="#DejaVuSans-Bold-66" x="490.283203"/>
     <use xlink:href="#DejaVuSans-Bold-69" x="533.789062"/>
     <use xlink:href="#DejaVuSans-Bold-67" x="568.066406"/>
     <use xlink:href="#DejaVuSans-Bold-75" x="639.648438"/>
     <use xlink:href="#DejaVuSans-Bold-72" x="710.839844"/>
     <use xlink:href="#DejaVuSans-Bold-61" x="760.15625"/>
     <use xlink:href="#DejaVuSans-Bold-74" x="827.636719"/>
     <use xlink:href="#DejaVuSans-Bold-69" x="875.439453"/>
     <use xlink:href="#DejaVuSans-Bold-6f" x="909.716797"/>
     <use xlink:href="#DejaVuSans-Bold-6e" x="978.417969"/>
    </g>
    <!-- File -->
    <g transform="translate(331.764844 535.754219) scale(0.1 -0.1)">
     <defs>
      <path id="DejaVuSans-Bold-46" d="M 588 4666 
L 3834 4666 
L 3834 3756 
L 1791 3756 
L 1791 2888 
L 3713 2888 
L 3713 1978 
L 1791 1978 
L 1791 0 
L 588 0 
L 588 4666 
z
" transform="scale(0.015625)"/>
     </defs>
     <use xlink:href="#DejaVuSans-Bold-46"/>
     <use xlink:href="#DejaVuSans-Bold-69" x="68.310547"/>
     <use xlink:href="#DejaVuSans-Bold-6c" x="102.587891"/>
     <use xlink:href="#DejaVuSans-Bold-65" x="136.865234"/>
    </g>
   </g>
   <g id="text_8">
    <!-- Prompt File -->
    <g transform="translate(309.279688 613.27625) scale(0.1 -0.1)">
     <use xlink:href="#DejaVuSans-Bold-50"/>
     <use xlink:href="#DejaVuSans-Bold-72" x="73.291016"/>
     <use xlink:href="#DejaVuSans-Bold-6f" x="122.607422"/>
     <use xlink:href="#DejaVuSans-Bold-6d" x="191.308594"/>
     <use xlink:href="#DejaVuSans-Bold-70" x="295.507812"/>
     <use xlink:href="#DejaVuSans-Bold-74" x="367.089844"/>
     <use xlink:href="#DejaVuSans-Bold-20" x="414.892578"/>
     <use xlink:href="#DejaVuSans-Bold-46" x="449.707031"/>
     <use xlink:href="#DejaVuSans-Bold-69" x="518.017578"/>
     <use xlink:href="#DejaVuSans-Bold-6c" x="552.294922"/>
     <use xlink:href="#DejaVuSans-Bold-65" x="586.572266"/>
    </g>
   </g>
   <g id="text_9">
    <!-- Chat Log File -->
    <g transform="translate(751.490625 530.077187) scale(0.1 -0.1)">
     <use xlink:href="#DejaVuSans-Bold-43"/>
     <use xlink:href="#DejaVuSans-Bold-68" x="73.388672"/>
     <use xlink:href="#DejaVuSans-Bold-61" x="144.580078"/>
     <use xlink:href="#DejaVuSans-Bold-74" x="212.060547"/>
     <use xlink:href="#DejaVuSans-Bold-20" x="259.863281"/>
     <use xlink:href="#DejaVuSans-Bold-4c" x="294.677734"/>
     <use xlink:href="#DejaVuSans-Bold-6f" x="358.398438"/>
     <use xlink:href="#DejaVuSans-Bold-67" x="427.099609"/>
     <use xlink:href="#DejaVuSans-Bold-20" x="498.681641"/>
     <use xlink:href="#DejaVuSans-Bold-46" x="533.496094"/>
     <use xlink:href="#DejaVuSans-Bold-69" x="601.806641"/>
     <use xlink:href="#DejaVuSans-Bold-6c" x="636.083984"/>
     <use xlink:href="#DejaVuSans-Bold-65" x="670.361328"/>
    </g>
   </g>
   <g id="text_10">
    <!-- Local Storage &amp; -->
    <g transform="translate(966.849219 524.439219) scale(0.1 -0.1)">
     <use xlink:href="#DejaVuSans-Bold-4c"/>
     <use xlink:href="#DejaVuSans-Bold-6f" x="63.720703"/>
     <use xlink:href="#DejaVuSans-Bold-63" x="132.421875"/>
     <use xlink:href="#DejaVuSans-Bold-61" x="191.699219"/>
     <use xlink:href="#DejaVuSans-Bold-6c" x="259.179688"/>
     <use xlink:href="#DejaVuSans-Bold-20" x="293.457031"/>
     <use xlink:href="#DejaVuSans-Bold-53" x="328.271484"/>
     <use xlink:href="#DejaVuSans-Bold-74" x="400.292969"/>
     <use xlink:href="#DejaVuSans-Bold-6f" x="448.095703"/>
     <use xlink:href="#DejaVuSans-Bold-72" x="516.796875"/>
     <use xlink:href="#DejaVuSans-Bold-61" x="566.113281"/>
     <use xlink:href="#DejaVuSans-Bold-67" x="633.59375"/>
     <use xlink:href="#DejaVuSans-Bold-65" x="705.175781"/>
     <use xlink:href="#DejaVuSans-Bold-20" x="772.998047"/>
     <use xlink:href="#DejaVuSans-Bold-26" x="807.8125"/>
    </g>
    <!-- Logging -->
    <g transform="translate(988.96875 535.715156) scale(0.1 -0.1)">
     <use xlink:href="#DejaVuSans-Bold-4c"/>
     <use xlink:href="#DejaVuSans-Bold-6f" x="63.720703"/>
     <use xlink:href="#DejaVuSans-Bold-67" x="132.421875"/>
     <use xlink:href="#DejaVuSans-Bold-67" x="204.003906"/>
     <use xlink:href="#DejaVuSans-Bold-69" x="275.585938"/>
     <use xlink:href="#DejaVuSans-Bold-6e" x="309.863281"/>
     <use xlink:href="#DejaVuSans-Bold-67" x="381.054688"/>
    </g>
   </g>
   <g id="text_11">
    <!-- Error Handling &amp; -->
    <g transform="translate(517.847656 690.759219) scale(0.1 -0.1)">
     <defs>
      <path id="DejaVuSans-Bold-48" d="M 588 4666 
L 1791 4666 
L 1791 2888 
L 3566 2888 
L 3566 4666 
L 4769 4666 
L 4769 0 
L 3566 0 
L 3566 1978 
L 1791 1978 
L 1791 0 
L 588 0 
L 588 4666 
z
" transform="scale(0.015625)"/>
      <path id="DejaVuSans-Bold-64" d="M 2919 2988 
L 2919 4863 
L 4044 4863 
L 4044 0 
L 2919 0 
L 2919 506 
Q 2688 197 2409 53 
Q 2131 -91 1766 -91 
Q 1119 -91 703 423 
Q 288 938 288 1747 
Q 288 2556 703 3070 
Q 1119 3584 1766 3584 
Q 2128 3584 2408 3439 
Q 2688 3294 2919 2988 
z
M 2181 722 
Q 2541 722 2730 984 
Q 2919 1247 2919 1747 
Q 2919 2247 2730 2509 
Q 2541 2772 2181 2772 
Q 1825 2772 1636 2509 
Q 1447 2247 1447 1747 
Q 1447 1247 1636 984 
Q 1825 722 2181 722 
z
" transform="scale(0.015625)"/>
     </defs>
     <use xlink:href="#DejaVuSans-Bold-45"/>
     <use xlink:href="#DejaVuSans-Bold-72" x="68.310547"/>
     <use xlink:href="#DejaVuSans-Bold-72" x="117.626953"/>
     <use xlink:href="#DejaVuSans-Bold-6f" x="166.943359"/>
     <use xlink:href="#DejaVuSans-Bold-72" x="235.644531"/>
     <use xlink:href="#DejaVuSans-Bold-20" x="284.960938"/>
     <use xlink:href="#DejaVuSans-Bold-48" x="319.775391"/>
     <use xlink:href="#DejaVuSans-Bold-61" x="403.466797"/>
     <use xlink:href="#DejaVuSans-Bold-6e" x="470.947266"/>
     <use xlink:href="#DejaVuSans-Bold-64" x="542.138672"/>
     <use xlink:href="#DejaVuSans-Bold-6c" x="613.720703"/>
     <use xlink:href="#DejaVuSans-Bold-69" x="647.998047"/>
     <use xlink:href="#DejaVuSans-Bold-6e" x="682.275391"/>
     <use xlink:href="#DejaVuSans-Bold-67" x="753.466797"/>
     <use xlink:href="#DejaVuSans-Bold-20" x="825.048828"/>
     <use xlink:href="#DejaVuSans-Bold-26" x="859.863281"/>
    </g>
    <!-- Debugging -->
    <g transform="translate(534.509375 702.035156) scale(0.1 -0.1)">
     <defs>
      <path id="DejaVuSans-Bold-44" d="M 1791 3756 
L 1791 909 
L 2222 909 
Q 2959 909 3348 1275 
Q 3738 1641 3738 2338 
Q 3738 3031 3350 3393 
Q 2963 3756 2222 3756 
L 1791 3756 
z
M 588 4666 
L 1856 4666 
Q 2919 4666 3439 4514 
Q 3959 4363 4331 4000 
Q 4659 3684 4818 3271 
Q 4978 2859 4978 2338 
Q 4978 1809 4818 1395 
Q 4659 981 4331 666 
Q 3956 303 3431 151 
Q 2906 0 1856 0 
L 588 0 
L 588 4666 
z
" transform="scale(0.015625)"/>
     </defs>
     <use xlink:href="#DejaVuSans-Bold-44"/>
     <use xlink:href="#DejaVuSans-Bold-65" x="83.007812"/>
     <use xlink:href="#DejaVuSans-Bold-62" x="150.830078"/>
     <use xlink:href="#DejaVuSans-Bold-75" x="222.412109"/>
     <use xlink:href="#DejaVuSans-Bold-67" x="293.603516"/>
     <use xlink:href="#DejaVuSans-Bold-67" x="365.185547"/>
     <use xlink:href="#DejaVuSans-Bold-69" x="436.767578"/>
     <use xlink:href="#DejaVuSans-Bold-6e" x="471.044922"/>
     <use xlink:href="#DejaVuSans-Bold-67" x="542.236328"/>
    </g>
   </g>
   <g id="text_12">
    <g id="patch_13">
     <path d="M 177.189375 157.968125 
L 283.610625 157.968125 
L 283.610625 148.305625 
L 177.189375 148.305625 
z
" style="fill: #ffffff"/>
    </g>
    <!-- Sends Messages &amp; Events -->
    <g transform="translate(178.149375 155.344375) scale(0.08 -0.08)">
     <defs>
      <path id="DejaVuSans-53" d="M 3425 4513 
L 3425 3897 
Q 3066 4069 2747 4153 
Q 2428 4238 2131 4238 
Q 1616 4238 1336 4038 
Q 1056 3838 1056 3469 
Q 1056 3159 1242 3001 
Q 1428 2844 1947 2747 
L 2328 2669 
Q 3034 2534 3370 2195 
Q 3706 1856 3706 1288 
Q 3706 609 3251 259 
Q 2797 -91 1919 -91 
Q 1588 -91 1214 -16 
Q 841 59 441 206 
L 441 856 
Q 825 641 1194 531 
Q 1563 422 1919 422 
Q 2459 422 2753 634 
Q 3047 847 3047 1241 
Q 3047 1584 2836 1778 
Q 2625 1972 2144 2069 
L 1759 2144 
Q 1053 2284 737 2584 
Q 422 2884 422 3419 
Q 422 4038 858 4394 
Q 1294 4750 2059 4750 
Q 2388 4750 2728 4690 
Q 3069 4631 3425 4513 
z
" transform="scale(0.015625)"/>
      <path id="DejaVuSans-65" d="M 3597 1894 
L 3597 1613 
L 953 1613 
Q 991 1019 1311 708 
Q 1631 397 2203 397 
Q 2534 397 2845 478 
Q 3156 559 3463 722 
L 3463 178 
Q 3153 47 2828 -22 
Q 2503 -91 2169 -91 
Q 1331 -91 842 396 
Q 353 884 353 1716 
Q 353 2575 817 3079 
Q 1281 3584 2069 3584 
Q 2775 3584 3186 3129 
Q 3597 2675 3597 1894 
z
M 3022 2063 
Q 3016 2534 2758 2815 
Q 2500 3097 2075 3097 
Q 1594 3097 1305 2825 
Q 1016 2553 972 2059 
L 3022 2063 
z
" transform="scale(0.015625)"/>
      <path id="DejaVuSans-6e" d="M 3513 2113 
L 3513 0 
L 2938 0 
L 2938 2094 
Q 2938 2591 2744 2837 
Q 2550 3084 2163 3084 
Q 1697 3084 1428 2787 
Q 1159 2491 1159 1978 
L 1159 0 
L 581 0 
L 581 3500 
L 1159 3500 
L 1159 2956 
Q 1366 3272 1645 3428 
Q 1925 3584 2291 3584 
Q 2894 3584 3203 3211 
Q 3513 2838 3513 2113 
z
" transform="scale(0.015625)"/>
      <path id="DejaVuSans-64" d="M 2906 2969 
L 2906 4863 
L 3481 4863 
L 3481 0 
L 2906 0 
L 2906 525 
Q 2725 213 2448 61 
Q 2172 -91 1784 -91 
Q 1150 -91 751 415 
Q 353 922 353 1747 
Q 353 2572 751 3078 
Q 1150 3584 1784 3584 
Q 2172 3584 2448 3432 
Q 2725 3281 2906 2969 
z
M 947 1747 
Q 947 1113 1208 752 
Q 1469 391 1925 391 
Q 2381 391 2643 752 
Q 2906 1113 2906 1747 
Q 2906 2381 2643 2742 
Q 2381 3103 1925 3103 
Q 1469 3103 1208 2742 
Q 947 2381 947 1747 
z
" transform="scale(0.015625)"/>
      <path id="DejaVuSans-73" d="M 2834 3397 
L 2834 2853 
Q 2591 2978 2328 3040 
Q 2066 3103 1784 3103 
Q 1356 3103 1142 2972 
Q 928 2841 928 2578 
Q 928 2378 1081 2264 
Q 1234 2150 1697 2047 
L 1894 2003 
Q 2506 1872 2764 1633 
Q 3022 1394 3022 966 
Q 3022 478 2636 193 
Q 2250 -91 1575 -91 
Q 1294 -91 989 -36 
Q 684 19 347 128 
L 347 722 
Q 666 556 975 473 
Q 1284 391 1588 391 
Q 1994 391 2212 530 
Q 2431 669 2431 922 
Q 2431 1156 2273 1281 
Q 2116 1406 1581 1522 
L 1381 1569 
Q 847 1681 609 1914 
Q 372 2147 372 2553 
Q 372 3047 722 3315 
Q 1072 3584 1716 3584 
Q 2034 3584 2315 3537 
Q 2597 3491 2834 3397 
z
" transform="scale(0.015625)"/>
      <path id="DejaVuSans-20" transform="scale(0.015625)"/>
      <path id="DejaVuSans-4d" d="M 628 4666 
L 1569 4666 
L 2759 1491 
L 3956 4666 
L 4897 4666 
L 4897 0 
L 4281 0 
L 4281 4097 
L 3078 897 
L 2444 897 
L 1241 4097 
L 1241 0 
L 628 0 
L 628 4666 
z
" transform="scale(0.015625)"/>
      <path id="DejaVuSans-61" d="M 2194 1759 
Q 1497 1759 1228 1600 
Q 959 1441 959 1056 
Q 959 750 1161 570 
Q 1363 391 1709 391 
Q 2188 391 2477 730 
Q 2766 1069 2766 1631 
L 2766 1759 
L 2194 1759 
z
M 3341 1997 
L 3341 0 
L 2766 0 
L 2766 531 
Q 2569 213 2275 61 
Q 1981 -91 1556 -91 
Q 1019 -91 701 211 
Q 384 513 384 1019 
Q 384 1609 779 1909 
Q 1175 2209 1959 2209 
L 2766 2209 
L 2766 2266 
Q 2766 2663 2505 2880 
Q 2244 3097 1772 3097 
Q 1472 3097 1187 3025 
Q 903 2953 641 2809 
L 641 3341 
Q 956 3463 1253 3523 
Q 1550 3584 1831 3584 
Q 2591 3584 2966 3190 
Q 3341 2797 3341 1997 
z
" transform="scale(0.015625)"/>
      <path id="DejaVuSans-67" d="M 2906 1791 
Q 2906 2416 2648 2759 
Q 2391 3103 1925 3103 
Q 1463 3103 1205 2759 
Q 947 2416 947 1791 
Q 947 1169 1205 825 
Q 1463 481 1925 481 
Q 2391 481 2648 825 
Q 2906 1169 2906 1791 
z
M 3481 434 
Q 3481 -459 3084 -895 
Q 2688 -1331 1869 -1331 
Q 1566 -1331 1297 -1286 
Q 1028 -1241 775 -1147 
L 775 -588 
Q 1028 -725 1275 -790 
Q 1522 -856 1778 -856 
Q 2344 -856 2625 -561 
Q 2906 -266 2906 331 
L 2906 616 
Q 2728 306 2450 153 
Q 2172 0 1784 0 
Q 1141 0 747 490 
Q 353 981 353 1791 
Q 353 2603 747 3093 
Q 1141 3584 1784 3584 
Q 2172 3584 2450 3431 
Q 2728 3278 2906 2969 
L 2906 3500 
L 3481 3500 
L 3481 434 
z
" transform="scale(0.015625)"/>
      <path id="DejaVuSans-26" d="M 1556 2509 
Q 1272 2256 1139 2004 
Q 1006 1753 1006 1478 
Q 1006 1022 1337 719 
Q 1669 416 2169 416 
Q 2466 416 2725 514 
Q 2984 613 3213 813 
L 1556 2509 
z
M 1997 2859 
L 3584 1234 
Q 3769 1513 3872 1830 
Q 3975 2147 3994 2503 
L 4575 2503 
Q 4538 2091 4375 1687 
Q 4213 1284 3922 891 
L 4794 0 
L 4006 0 
L 3559 459 
Q 3234 181 2878 45 
Q 2522 -91 2113 -91 
Q 1359 -91 881 339 
Q 403 769 403 1441 
Q 403 1841 612 2192 
Q 822 2544 1241 2853 
Q 1091 3050 1012 3245 
Q 934 3441 934 3628 
Q 934 4134 1281 4442 
Q 1628 4750 2203 4750 
Q 2463 4750 2720 4694 
Q 2978 4638 3244 4525 
L 3244 3956 
Q 2972 4103 2725 4179 
Q 2478 4256 2266 4256 
Q 1938 4256 1733 4082 
Q 1528 3909 1528 3634 
Q 1528 3475 1620 3314 
Q 1713 3153 1997 2859 
z
" transform="scale(0.015625)"/>
      <path id="DejaVuSans-45" d="M 628 4666 
L 3578 4666 
L 3578 4134 
L 1259 4134 
L 1259 2753 
L 3481 2753 
L 3481 2222 
L 1259 2222 
L 1259 531 
L 3634 531 
L 3634 0 
L 628 0 
L 628 4666 
z
" transform="scale(0.015625)"/>
      <path id="DejaVuSans-76" d="M 191 3500 
L 800 3500 
L 1894 563 
L 2988 3500 
L 3597 3500 
L 2284 0 
L 1503 0 
L 191 3500 
z
" transform="scale(0.015625)"/>
      <path id="DejaVuSans-74" d="M 1172 4494 
L 1172 3500 
L 2356 3500 
L 2356 3053 
L 1172 3053 
L 1172 1153 
Q 1172 725 1289 603 
Q 1406 481 1766 481 
L 2356 481 
L 2356 0 
L 1766 0 
Q 1100 0 847 248 
Q 594 497 594 1153 
L 594 3053 
L 172 3053 
L 172 3500 
L 594 3500 
L 594 4494 
L 1172 4494 
z
" transform="scale(0.015625)"/>
     </defs>
     <use xlink:href="#DejaVuSans-53"/>
     <use xlink:href="#DejaVuSans-65" x="63.476562"/>
     <use xlink:href="#DejaVuSans-6e" x="125"/>
     <use xlink:href="#DejaVuSans-64" x="188.378906"/>
     <use xlink:href="#DejaVuSans-73" x="251.855469"/>
     <use xlink:href="#DejaVuSans-20" x="303.955078"/>
     <use xlink:href="#DejaVuSans-4d" x="335.742188"/>
     <use xlink:href="#DejaVuSans-65" x="422.021484"/>
     <use xlink:href="#DejaVuSans-73" x="483.544922"/>
     <use xlink:href="#DejaVuSans-73" x="535.644531"/>
     <use xlink:href="#DejaVuSans-61" x="587.744141"/>
     <use xlink:href="#DejaVuSans-67" x="649.023438"/>
     <use xlink:href="#DejaVuSans-65" x="712.5"/>
     <use xlink:href="#DejaVuSans-73" x="774.023438"/>
     <use xlink:href="#DejaVuSans-20" x="826.123047"/>
     <use xlink:href="#DejaVuSans-26" x="857.910156"/>
     <use xlink:href="#DejaVuSans-20" x="935.888672"/>
     <use xlink:href="#DejaVuSans-45" x="967.675781"/>
     <use xlink:href="#DejaVuSans-76" x="1030.859375"/>
     <use xlink:href="#DejaVuSans-65" x="1090.039062"/>
     <use xlink:href="#DejaVuSans-6e" x="1151.5625"/>
     <use xlink:href="#DejaVuSans-74" x="1214.941406"/>
     <use xlink:href="#DejaVuSans-73" x="1254.150391"/>
    </g>
   </g>
   <g id="text_13">
    <g id="patch_14">
     <path d="M 359.07875 241.128125 
L 436.52125 241.128125 
L 436.52125 231.465625 
L 359.07875 231.465625 
z
" style="fill: #ffffff"/>
    </g>
    <!-- Delivers Chat Data -->
    <g transform="translate(360.03875 238.504375) scale(0.08 -0.08)">
     <defs>
      <path id="DejaVuSans-44" d="M 1259 4147 
L 1259 519 
L 2022 519 
Q 2988 519 3436 956 
Q 3884 1394 3884 2338 
Q 3884 3275 3436 3711 
Q 2988 4147 2022 4147 
L 1259 4147 
z
M 628 4666 
L 1925 4666 
Q 3281 4666 3915 4102 
Q 4550 3538 4550 2338 
Q 4550 1131 3912 565 
Q 3275 0 1925 0 
L 628 0 
L 628 4666 
z
" transform="scale(0.015625)"/>
      <path id="DejaVuSans-6c" d="M 603 4863 
L 1178 4863 
L 1178 0 
L 603 0 
L 603 4863 
z
" transform="scale(0.015625)"/>
      <path id="DejaVuSans-69" d="M 603 3500 
L 1178 3500 
L 1178 0 
L 603 0 
L 603 3500 
z
M 603 4863 
L 1178 4863 
L 1178 4134 
L 603 4134 
L 603 4863 
z
" transform="scale(0.015625)"/>
      <path id="DejaVuSans-72" d="M 2631 2963 
Q 2534 3019 2420 3045 
Q 2306 3072 2169 3072 
Q 1681 3072 1420 2755 
Q 1159 2438 1159 1844 
L 1159 0 
L 581 0 
L 581 3500 
L 1159 3500 
L 1159 2956 
Q 1341 3275 1631 3429 
Q 1922 3584 2338 3584 
Q 2397 3584 2469 3576 
Q 2541 3569 2628 3553 
L 2631 2963 
z
" transform="scale(0.015625)"/>
      <path id="DejaVuSans-43" d="M 4122 4306 
L 4122 3641 
Q 3803 3938 3442 4084 
Q 3081 4231 2675 4231 
Q 1875 4231 1450 3742 
Q 1025 3253 1025 2328 
Q 1025 1406 1450 917 
Q 1875 428 2675 428 
Q 3081 428 3442 575 
Q 3803 722 4122 1019 
L 4122 359 
Q 3791 134 3420 21 
Q 3050 -91 2638 -91 
Q 1578 -91 968 557 
Q 359 1206 359 2328 
Q 359 3453 968 4101 
Q 1578 4750 2638 4750 
Q 3056 4750 3426 4639 
Q 3797 4528 4122 4306 
z
" transform="scale(0.015625)"/>
      <path id="DejaVuSans-68" d="M 3513 2113 
L 3513 0 
L 2938 0 
L 2938 2094 
Q 2938 2591 2744 2837 
Q 2550 3084 2163 3084 
Q 1697 3084 1428 2787 
Q 1159 2491 1159 1978 
L 1159 0 
L 581 0 
L 581 4863 
L 1159 4863 
L 1159 2956 
Q 1366 3272 1645 3428 
Q 1925 3584 2291 3584 
Q 2894 3584 3203 3211 
Q 3513 2838 3513 2113 
z
" transform="scale(0.015625)"/>
     </defs>
     <use xlink:href="#DejaVuSans-44"/>
     <use xlink:href="#DejaVuSans-65" x="77.001953"/>
     <use xlink:href="#DejaVuSans-6c" x="138.525391"/>
     <use xlink:href="#DejaVuSans-69" x="166.308594"/>
     <use xlink:href="#DejaVuSans-76" x="194.091797"/>
     <use xlink:href="#DejaVuSans-65" x="253.271484"/>
     <use xlink:href="#DejaVuSans-72" x="314.794922"/>
     <use xlink:href="#DejaVuSans-73" x="355.908203"/>
     <use xlink:href="#DejaVuSans-20" x="408.007812"/>
     <use xlink:href="#DejaVuSans-43" x="439.794922"/>
     <use xlink:href="#DejaVuSans-68" x="509.619141"/>
     <use xlink:href="#DejaVuSans-61" x="572.998047"/>
     <use xlink:href="#DejaVuSans-74" x="634.277344"/>
     <use xlink:href="#DejaVuSans-20" x="673.486328"/>
     <use xlink:href="#DejaVuSans-44" x="705.273438"/>
     <use xlink:href="#DejaVuSans-61" x="782.275391"/>
     <use xlink:href="#DejaVuSans-74" x="843.554688"/>
     <use xlink:href="#DejaVuSans-61" x="882.763672"/>
    </g>
   </g>
   <g id="text_14">
    <g id="patch_15">
     <path d="M 570.905625 282.708125 
L 671.094375 282.708125 
L 671.094375 273.045625 
L 570.905625 273.045625 
z
" style="fill: #ffffff"/>
    </g>
    <!-- Sends Filtered Messages -->
    <g transform="translate(571.865625 280.084375) scale(0.08 -0.08)">
     <defs>
      <path id="DejaVuSans-46" d="M 628 4666 
L 3309 4666 
L 3309 4134 
L 1259 4134 
L 1259 2759 
L 3109 2759 
L 3109 2228 
L 1259 2228 
L 1259 0 
L 628 0 
L 628 4666 
z
" transform="scale(0.015625)"/>
     </defs>
     <use xlink:href="#DejaVuSans-53"/>
     <use xlink:href="#DejaVuSans-65" x="63.476562"/>
     <use xlink:href="#DejaVuSans-6e" x="125"/>
     <use xlink:href="#DejaVuSans-64" x="188.378906"/>
     <use xlink:href="#DejaVuSans-73" x="251.855469"/>
     <use xlink:href="#DejaVuSans-20" x="303.955078"/>
     <use xlink:href="#DejaVuSans-46" x="335.742188"/>
     <use xlink:href="#DejaVuSans-69" x="386.011719"/>
     <use xlink:href="#DejaVuSans-6c" x="413.794922"/>
     <use xlink:href="#DejaVuSans-74" x="441.578125"/>
     <use xlink:href="#DejaVuSans-65" x="480.787109"/>
     <use xlink:href="#DejaVuSans-72" x="542.310547"/>
     <use xlink:href="#DejaVuSans-65" x="581.173828"/>
     <use xlink:href="#DejaVuSans-64" x="642.697266"/>
     <use xlink:href="#DejaVuSans-20" x="706.173828"/>
     <use xlink:href="#DejaVuSans-4d" x="737.960938"/>
     <use xlink:href="#DejaVuSans-65" x="824.240234"/>
     <use xlink:href="#DejaVuSans-73" x="885.763672"/>
     <use xlink:href="#DejaVuSans-73" x="937.863281"/>
     <use xlink:href="#DejaVuSans-61" x="989.962891"/>
     <use xlink:href="#DejaVuSans-67" x="1051.242188"/>
     <use xlink:href="#DejaVuSans-65" x="1114.71875"/>
     <use xlink:href="#DejaVuSans-73" x="1176.242188"/>
    </g>
   </g>
   <g id="text_15">
    <g id="patch_16">
     <path d="M 744.329375 241.128125 
L 832.470625 241.128125 
L 832.470625 231.465625 
L 744.329375 231.465625 
z
" style="fill: #ffffff"/>
    </g>
    <!-- Returns AI Responses -->
    <g transform="translate(745.289375 238.504375) scale(0.08 -0.08)">
     <defs>
      <path id="DejaVuSans-52" d="M 2841 2188 
Q 3044 2119 3236 1894 
Q 3428 1669 3622 1275 
L 4263 0 
L 3584 0 
L 2988 1197 
Q 2756 1666 2539 1819 
Q 2322 1972 1947 1972 
L 1259 1972 
L 1259 0 
L 628 0 
L 628 4666 
L 2053 4666 
Q 2853 4666 3247 4331 
Q 3641 3997 3641 3322 
Q 3641 2881 3436 2590 
Q 3231 2300 2841 2188 
z
M 1259 4147 
L 1259 2491 
L 2053 2491 
Q 2509 2491 2742 2702 
Q 2975 2913 2975 3322 
Q 2975 3731 2742 3939 
Q 2509 4147 2053 4147 
L 1259 4147 
z
" transform="scale(0.015625)"/>
      <path id="DejaVuSans-75" d="M 544 1381 
L 544 3500 
L 1119 3500 
L 1119 1403 
Q 1119 906 1312 657 
Q 1506 409 1894 409 
Q 2359 409 2629 706 
Q 2900 1003 2900 1516 
L 2900 3500 
L 3475 3500 
L 3475 0 
L 2900 0 
L 2900 538 
Q 2691 219 2414 64 
Q 2138 -91 1772 -91 
Q 1169 -91 856 284 
Q 544 659 544 1381 
z
M 1991 3584 
L 1991 3584 
z
" transform="scale(0.015625)"/>
      <path id="DejaVuSans-41" d="M 2188 4044 
L 1331 1722 
L 3047 1722 
L 2188 4044 
z
M 1831 4666 
L 2547 4666 
L 4325 0 
L 3669 0 
L 3244 1197 
L 1141 1197 
L 716 0 
L 50 0 
L 1831 4666 
z
" transform="scale(0.015625)"/>
      <path id="DejaVuSans-49" d="M 628 4666 
L 1259 4666 
L 1259 0 
L 628 0 
L 628 4666 
z
" transform="scale(0.015625)"/>
      <path id="DejaVuSans-70" d="M 1159 525 
L 1159 -1331 
L 581 -1331 
L 581 3500 
L 1159 3500 
L 1159 2969 
Q 1341 3281 1617 3432 
Q 1894 3584 2278 3584 
Q 2916 3584 3314 3078 
Q 3713 2572 3713 1747 
Q 3713 922 3314 415 
Q 2916 -91 2278 -91 
Q 1894 -91 1617 61 
Q 1341 213 1159 525 
z
M 3116 1747 
Q 3116 2381 2855 2742 
Q 2594 3103 2138 3103 
Q 1681 3103 1420 2742 
Q 1159 2381 1159 1747 
Q 1159 1113 1420 752 
Q 1681 391 2138 391 
Q 2594 391 2855 752 
Q 3116 1113 3116 1747 
z
" transform="scale(0.015625)"/>
      <path id="DejaVuSans-6f" d="M 1959 3097 
Q 1497 3097 1228 2736 
Q 959 2375 959 1747 
Q 959 1119 1226 758 
Q 1494 397 1959 397 
Q 2419 397 2687 759 
Q 2956 1122 2956 1747 
Q 2956 2369 2687 2733 
Q 2419 3097 1959 3097 
z
M 1959 3584 
Q 2709 3584 3137 3096 
Q 3566 2609 3566 1747 
Q 3566 888 3137 398 
Q 2709 -91 1959 -91 
Q 1206 -91 779 398 
Q 353 888 353 1747 
Q 353 2609 779 3096 
Q 1206 3584 1959 3584 
z
" transform="scale(0.015625)"/>
     </defs>
     <use xlink:href="#DejaVuSans-52"/>
     <use xlink:href="#DejaVuSans-65" x="64.982422"/>
     <use xlink:href="#DejaVuSans-74" x="126.505859"/>
     <use xlink:href="#DejaVuSans-75" x="165.714844"/>
     <use xlink:href="#DejaVuSans-72" x="229.09375"/>
     <use xlink:href="#DejaVuSans-6e" x="268.457031"/>
     <use xlink:href="#DejaVuSans-73" x="331.835938"/>
     <use xlink:href="#DejaVuSans-20" x="383.935547"/>
     <use xlink:href="#DejaVuSans-41" x="415.722656"/>
     <use xlink:href="#DejaVuSans-49" x="484.130859"/>
     <use xlink:href="#DejaVuSans-20" x="513.623047"/>
     <use xlink:href="#DejaVuSans-52" x="545.410156"/>
     <use xlink:href="#DejaVuSans-65" x="610.392578"/>
     <use xlink:href="#DejaVuSans-73" x="671.916016"/>
     <use xlink:href="#DejaVuSans-70" x="724.015625"/>
     <use xlink:href="#DejaVuSans-6f" x="787.492188"/>
     <use xlink:href="#DejaVuSans-6e" x="848.673828"/>
     <use xlink:href="#DejaVuSans-73" x="912.052734"/>
     <use xlink:href="#DejaVuSans-65" x="964.152344"/>
     <use xlink:href="#DejaVuSans-73" x="1025.675781"/>
    </g>
   </g>
   <g id="text_16">
    <g id="patch_17">
     <path d="M 691.431875 407.448125 
L 773.768125 407.448125 
L 773.768125 397.785625 
L 691.431875 397.785625 
z
" style="fill: #ffffff"/>
    </g>
    <!-- Sends Text for Voice -->
    <g transform="translate(692.391875 404.824375) scale(0.08 -0.08)">
     <defs>
      <path id="DejaVuSans-54" d="M -19 4666 
L 3928 4666 
L 3928 4134 
L 2272 4134 
L 2272 0 
L 1638 0 
L 1638 4134 
L -19 4134 
L -19 4666 
z
" transform="scale(0.015625)"/>
      <path id="DejaVuSans-78" d="M 3513 3500 
L 2247 1797 
L 3578 0 
L 2900 0 
L 1881 1375 
L 863 0 
L 184 0 
L 1544 1831 
L 300 3500 
L 978 3500 
L 1906 2253 
L 2834 3500 
L 3513 3500 
z
" transform="scale(0.015625)"/>
      <path id="DejaVuSans-66" d="M 2375 4863 
L 2375 4384 
L 1825 4384 
Q 1516 4384 1395 4259 
Q 1275 4134 1275 3809 
L 1275 3500 
L 2222 3500 
L 2222 3053 
L 1275 3053 
L 1275 0 
L 697 0 
L 697 3053 
L 147 3053 
L 147 3500 
L 697 3500 
L 697 3744 
Q 697 4328 969 4595 
Q 1241 4863 1831 4863 
L 2375 4863 
z
" transform="scale(0.015625)"/>
      <path id="DejaVuSans-56" d="M 1831 0 
L 50 4666 
L 709 4666 
L 2188 738 
L 3669 4666 
L 4325 4666 
L 2547 0 
L 1831 0 
z
" transform="scale(0.015625)"/>
      <path id="DejaVuSans-63" d="M 3122 3366 
L 3122 2828 
Q 2878 2963 2633 3030 
Q 2388 3097 2138 3097 
Q 1578 3097 1268 2742 
Q 959 2388 959 1747 
Q 959 1106 1268 751 
Q 1578 397 2138 397 
Q 2388 397 2633 464 
Q 2878 531 3122 666 
L 3122 134 
Q 2881 22 2623 -34 
Q 2366 -91 2075 -91 
Q 1284 -91 818 406 
Q 353 903 353 1747 
Q 353 2603 823 3093 
Q 1294 3584 2113 3584 
Q 2378 3584 2631 3529 
Q 2884 3475 3122 3366 
z
" transform="scale(0.015625)"/>
     </defs>
     <use xlink:href="#DejaVuSans-53"/>
     <use xlink:href="#DejaVuSans-65" x="63.476562"/>
     <use xlink:href="#DejaVuSans-6e" x="125"/>
     <use xlink:href="#DejaVuSans-64" x="188.378906"/>
     <use xlink:href="#DejaVuSans-73" x="251.855469"/>
     <use xlink:href="#DejaVuSans-20" x="303.955078"/>
     <use xlink:href="#DejaVuSans-54" x="335.742188"/>
     <use xlink:href="#DejaVuSans-65" x="379.826172"/>
     <use xlink:href="#DejaVuSans-78" x="439.599609"/>
     <use xlink:href="#DejaVuSans-74" x="498.779297"/>
     <use xlink:href="#DejaVuSans-20" x="537.988281"/>
     <use xlink:href="#DejaVuSans-66" x="569.775391"/>
     <use xlink:href="#DejaVuSans-6f" x="604.980469"/>
     <use xlink:href="#DejaVuSans-72" x="666.162109"/>
     <use xlink:href="#DejaVuSans-20" x="707.275391"/>
     <use xlink:href="#DejaVuSans-56" x="739.0625"/>
     <use xlink:href="#DejaVuSans-6f" x="799.720703"/>
     <use xlink:href="#DejaVuSans-69" x="860.902344"/>
     <use xlink:href="#DejaVuSans-63" x="888.685547"/>
     <use xlink:href="#DejaVuSans-65" x="943.666016"/>
    </g>
   </g>
   <g id="text_17">
    <g id="patch_18">
     <path d="M 759.4425 449.028125 
L 817.3575 449.028125 
L 817.3575 439.365625 
L 759.4425 439.365625 
z
" style="fill: #ffffff"/>
    </g>
    <!-- Returns Audio -->
    <g transform="translate(760.4025 446.404375) scale(0.08 -0.08)">
     <use xlink:href="#DejaVuSans-52"/>
     <use xlink:href="#DejaVuSans-65" x="64.982422"/>
     <use xlink:href="#DejaVuSans-74" x="126.505859"/>
     <use xlink:href="#DejaVuSans-75" x="165.714844"/>
     <use xlink:href="#DejaVuSans-72" x="229.09375"/>
     <use xlink:href="#DejaVuSans-6e" x="268.457031"/>
     <use xlink:href="#DejaVuSans-73" x="331.835938"/>
     <use xlink:href="#DejaVuSans-20" x="383.935547"/>
     <use xlink:href="#DejaVuSans-41" x="415.722656"/>
     <use xlink:href="#DejaVuSans-75" x="484.130859"/>
     <use xlink:href="#DejaVuSans-64" x="547.509766"/>
     <use xlink:href="#DejaVuSans-69" x="610.986328"/>
     <use xlink:href="#DejaVuSans-6f" x="638.769531"/>
    </g>
   </g>
   <g id="text_18">
    <g id="patch_19">
     <path d="M 864.754375 407.448125 
L 935.245625 407.448125 
L 935.245625 397.785625 
L 864.754375 397.785625 
z
" style="fill: #ffffff"/>
    </g>
    <!-- Logs Interactions -->
    <g transform="translate(865.714375 404.824375) scale(0.08 -0.08)">
     <defs>
      <path id="DejaVuSans-4c" d="M 628 4666 
L 1259 4666 
L 1259 531 
L 3531 531 
L 3531 0 
L 628 0 
L 628 4666 
z
" transform="scale(0.015625)"/>
     </defs>
     <use xlink:href="#DejaVuSans-4c"/>
     <use xlink:href="#DejaVuSans-6f" x="53.962891"/>
     <use xlink:href="#DejaVuSans-67" x="115.144531"/>
     <use xlink:href="#DejaVuSans-73" x="178.621094"/>
     <use xlink:href="#DejaVuSans-20" x="230.720703"/>
     <use xlink:href="#DejaVuSans-49" x="262.507812"/>
     <use xlink:href="#DejaVuSans-6e" x="292"/>
     <use xlink:href="#DejaVuSans-74" x="355.378906"/>
     <use xlink:href="#DejaVuSans-65" x="394.587891"/>
     <use xlink:href="#DejaVuSans-72" x="456.111328"/>
     <use xlink:href="#DejaVuSans-61" x="497.224609"/>
     <use xlink:href="#DejaVuSans-63" x="558.503906"/>
     <use xlink:href="#DejaVuSans-74" x="613.484375"/>
     <use xlink:href="#DejaVuSans-69" x="652.693359"/>
     <use xlink:href="#DejaVuSans-6f" x="680.476562"/>
     <use xlink:href="#DejaVuSans-6e" x="741.658203"/>
     <use xlink:href="#DejaVuSans-73" x="805.037109"/>
    </g>
   </g>
   <g id="text_19">
    <g id="patch_20">
     <path d="M 412.56125 490.608125 
L 494.63875 490.608125 
L 494.63875 480.945625 
L 412.56125 480.945625 
z
" style="fill: #ffffff"/>
    </g>
    <!-- Loads Configuration -->
    <g transform="translate(413.52125 487.984375) scale(0.08 -0.08)">
     <use xlink:href="#DejaVuSans-4c"/>
     <use xlink:href="#DejaVuSans-6f" x="53.962891"/>
     <use xlink:href="#DejaVuSans-61" x="115.144531"/>
     <use xlink:href="#DejaVuSans-64" x="176.423828"/>
     <use xlink:href="#DejaVuSans-73" x="239.900391"/>
     <use xlink:href="#DejaVuSans-20" x="292"/>
     <use xlink:href="#DejaVuSans-43" x="323.787109"/>
     <use xlink:href="#DejaVuSans-6f" x="393.611328"/>
     <use xlink:href="#DejaVuSans-6e" x="454.792969"/>
     <use xlink:href="#DejaVuSans-66" x="518.171875"/>
     <use xlink:href="#DejaVuSans-69" x="553.376953"/>
     <use xlink:href="#DejaVuSans-67" x="581.160156"/>
     <use xlink:href="#DejaVuSans-75" x="644.636719"/>
     <use xlink:href="#DejaVuSans-72" x="708.015625"/>
     <use xlink:href="#DejaVuSans-61" x="749.128906"/>
     <use xlink:href="#DejaVuSans-74" x="810.408203"/>
     <use xlink:href="#DejaVuSans-69" x="849.617188"/>
     <use xlink:href="#DejaVuSans-6f" x="877.400391"/>
     <use xlink:href="#DejaVuSans-6e" x="938.582031"/>
    </g>
   </g>
   <g id="text_20">
    <g id="patch_21">
     <path d="M 425.38125 573.768125 
L 481.81875 573.768125 
L 481.81875 564.105625 
L 425.38125 564.105625 
z
" style="fill: #ffffff"/>
    </g>
    <!-- Uses Prompts -->
    <g transform="translate(426.34125 571.144375) scale(0.08 -0.08)">
     <defs>
      <path id="DejaVuSans-55" d="M 556 4666 
L 1191 4666 
L 1191 1831 
Q 1191 1081 1462 751 
Q 1734 422 2344 422 
Q 2950 422 3222 751 
Q 3494 1081 3494 1831 
L 3494 4666 
L 4128 4666 
L 4128 1753 
Q 4128 841 3676 375 
Q 3225 -91 2344 -91 
Q 1459 -91 1007 375 
Q 556 841 556 1753 
L 556 4666 
z
" transform="scale(0.015625)"/>
      <path id="DejaVuSans-50" d="M 1259 4147 
L 1259 2394 
L 2053 2394 
Q 2494 2394 2734 2622 
Q 2975 2850 2975 3272 
Q 2975 3691 2734 3919 
Q 2494 4147 2053 4147 
L 1259 4147 
z
M 628 4666 
L 2053 4666 
Q 2838 4666 3239 4311 
Q 3641 3956 3641 3272 
Q 3641 2581 3239 2228 
Q 2838 1875 2053 1875 
L 1259 1875 
L 1259 0 
L 628 0 
L 628 4666 
z
" transform="scale(0.015625)"/>
      <path id="DejaVuSans-6d" d="M 3328 2828 
Q 3544 3216 3844 3400 
Q 4144 3584 4550 3584 
Q 5097 3584 5394 3201 
Q 5691 2819 5691 2113 
L 5691 0 
L 5113 0 
L 5113 2094 
Q 5113 2597 4934 2840 
Q 4756 3084 4391 3084 
Q 3944 3084 3684 2787 
Q 3425 2491 3425 1978 
L 3425 0 
L 2847 0 
L 2847 2094 
Q 2847 2600 2669 2842 
Q 2491 3084 2119 3084 
Q 1678 3084 1418 2786 
Q 1159 2488 1159 1978 
L 1159 0 
L 581 0 
L 581 3500 
L 1159 3500 
L 1159 2956 
Q 1356 3278 1631 3431 
Q 1906 3584 2284 3584 
Q 2666 3584 2933 3390 
Q 3200 3197 3328 2828 
z
" transform="scale(0.015625)"/>
     </defs>
     <use xlink:href="#DejaVuSans-55"/>
     <use xlink:href="#DejaVuSans-73" x="73.193359"/>
     <use xlink:href="#DejaVuSans-65" x="125.292969"/>
     <use xlink:href="#DejaVuSans-73" x="186.816406"/>
     <use xlink:href="#DejaVuSans-20" x="238.916016"/>
     <use xlink:href="#DejaVuSans-50" x="270.703125"/>
     <use xlink:href="#DejaVuSans-72" x="329.255859"/>
     <use xlink:href="#DejaVuSans-6f" x="368.119141"/>
     <use xlink:href="#DejaVuSans-6d" x="429.300781"/>
     <use xlink:href="#DejaVuSans-70" x="526.712891"/>
     <use xlink:href="#DejaVuSans-74" x="590.189453"/>
     <use xlink:href="#DejaVuSans-73" x="629.398438"/>
    </g>
   </g>
   <g id="text_21">
    <g id="patch_22">
     <path d="M 808.954375 490.608125 
L 879.445625 490.608125 
L 879.445625 480.945625 
L 808.954375 480.945625 
z
" style="fill: #ffffff"/>
    </g>
    <!-- Logs Interactions -->
    <g transform="translate(809.914375 487.984375) scale(0.08 -0.08)">
     <use xlink:href="#DejaVuSans-4c"/>
     <use xlink:href="#DejaVuSans-6f" x="53.962891"/>
     <use xlink:href="#DejaVuSans-67" x="115.144531"/>
     <use xlink:href="#DejaVuSans-73" x="178.621094"/>
     <use xlink:href="#DejaVuSans-20" x="230.720703"/>
     <use xlink:href="#DejaVuSans-49" x="262.507812"/>
     <use xlink:href="#DejaVuSans-6e" x="292"/>
     <use xlink:href="#DejaVuSans-74" x="355.378906"/>
     <use xlink:href="#DejaVuSans-65" x="394.587891"/>
     <use xlink:href="#DejaVuSans-72" x="456.111328"/>
     <use xlink:href="#DejaVuSans-61" x="497.224609"/>
     <use xlink:href="#DejaVuSans-63" x="558.503906"/>
     <use xlink:href="#DejaVuSans-74" x="613.484375"/>
     <use xlink:href="#DejaVuSans-69" x="652.693359"/>
     <use xlink:href="#DejaVuSans-6f" x="680.476562"/>
     <use xlink:href="#DejaVuSans-6e" x="741.658203"/>
     <use xlink:href="#DejaVuSans-73" x="805.037109"/>
    </g>
   </g>
   <g id="text_22">
    <g id="patch_23">
     <path d="M 1043.285 490.608125 
L 1091.515 490.608125 
L 1091.515 480.945625 
L 1043.285 480.945625 
z
" style="fill: #ffffff"/>
    </g>
    <!-- Stores Logs -->
    <g transform="translate(1044.245 487.984375) scale(0.08 -0.08)">
     <use xlink:href="#DejaVuSans-53"/>
     <use xlink:href="#DejaVuSans-74" x="63.476562"/>
     <use xlink:href="#DejaVuSans-6f" x="102.685547"/>
     <use xlink:href="#DejaVuSans-72" x="163.867188"/>
     <use xlink:href="#DejaVuSans-65" x="202.730469"/>
     <use xlink:href="#DejaVuSans-73" x="264.253906"/>
     <use xlink:href="#DejaVuSans-20" x="316.353516"/>
     <use xlink:href="#DejaVuSans-4c" x="348.140625"/>
     <use xlink:href="#DejaVuSans-6f" x="402.103516"/>
     <use xlink:href="#DejaVuSans-67" x="463.285156"/>
     <use xlink:href="#DejaVuSans-73" x="526.761719"/>
    </g>
   </g>
   <g id="text_23">
    <g id="patch_24">
     <path d="M 541.9075 656.928125 
L 588.4925 656.928125 
L 588.4925 647.265625 
L 541.9075 647.265625 
z
" style="fill: #ffffff"/>
    </g>
    <!-- Logs Errors -->
    <g transform="translate(542.8675 654.304375) scale(0.08 -0.08)">
     <use xlink:href="#DejaVuSans-4c"/>
     <use xlink:href="#DejaVuSans-6f" x="53.962891"/>
     <use xlink:href="#DejaVuSans-67" x="115.144531"/>
     <use xlink:href="#DejaVuSans-73" x="178.621094"/>
     <use xlink:href="#DejaVuSans-20" x="230.720703"/>
     <use xlink:href="#DejaVuSans-45" x="262.507812"/>
     <use xlink:href="#DejaVuSans-72" x="325.691406"/>
     <use xlink:href="#DejaVuSans-72" x="365.054688"/>
     <use xlink:href="#DejaVuSans-6f" x="403.917969"/>
     <use xlink:href="#DejaVuSans-72" x="465.099609"/>
     <use xlink:href="#DejaVuSans-73" x="506.212891"/>
    </g>
   </g>
   <g id="text_24">
    <g id="patch_25">
     <path d="M 283.85875 573.768125 
L 400.14125 573.768125 
L 400.14125 564.105625 
L 283.85875 564.105625 
z
" style="fill: #ffffff"/>
    </g>
    <!-- Provides API Keys &amp; Settings -->
    <g transform="translate(284.81875 571.144375) scale(0.08 -0.08)">
     <defs>
      <path id="DejaVuSans-4b" d="M 628 4666 
L 1259 4666 
L 1259 2694 
L 3353 4666 
L 4166 4666 
L 1850 2491 
L 4331 0 
L 3500 0 
L 1259 2247 
L 1259 0 
L 628 0 
L 628 4666 
z
" transform="scale(0.015625)"/>
      <path id="DejaVuSans-79" d="M 2059 -325 
Q 1816 -950 1584 -1140 
Q 1353 -1331 966 -1331 
L 506 -1331 
L 506 -850 
L 844 -850 
Q 1081 -850 1212 -737 
Q 1344 -625 1503 -206 
L 1606 56 
L 191 3500 
L 800 3500 
L 1894 763 
L 2988 3500 
L 3597 3500 
L 2059 -325 
z
" transform="scale(0.015625)"/>
     </defs>
     <use xlink:href="#DejaVuSans-50"/>
     <use xlink:href="#DejaVuSans-72" x="58.552734"/>
     <use xlink:href="#DejaVuSans-6f" x="97.416016"/>
     <use xlink:href="#DejaVuSans-76" x="158.597656"/>
     <use xlink:href="#DejaVuSans-69" x="217.777344"/>
     <use xlink:href="#DejaVuSans-64" x="245.560547"/>
     <use xlink:href="#DejaVuSans-65" x="309.037109"/>
     <use xlink:href="#DejaVuSans-73" x="370.560547"/>
     <use xlink:href="#DejaVuSans-20" x="422.660156"/>
     <use xlink:href="#DejaVuSans-41" x="454.447266"/>
     <use xlink:href="#DejaVuSans-50" x="522.855469"/>
     <use xlink:href="#DejaVuSans-49" x="583.158203"/>
     <use xlink:href="#DejaVuSans-20" x="612.650391"/>
     <use xlink:href="#DejaVuSans-4b" x="644.4375"/>
     <use xlink:href="#DejaVuSans-65" x="705.013672"/>
     <use xlink:href="#DejaVuSans-79" x="766.537109"/>
     <use xlink:href="#DejaVuSans-73" x="825.716797"/>
     <use xlink:href="#DejaVuSans-20" x="877.816406"/>
     <use xlink:href="#DejaVuSans-26" x="909.603516"/>
     <use xlink:href="#DejaVuSans-20" x="987.582031"/>
     <use xlink:href="#DejaVuSans-53" x="1019.369141"/>
     <use xlink:href="#DejaVuSans-65" x="1082.845703"/>
     <use xlink:href="#DejaVuSans-74" x="1144.369141"/>
     <use xlink:href="#DejaVuSans-74" x="1183.578125"/>
     <use xlink:href="#DejaVuSans-69" x="1222.787109"/>
     <use xlink:href="#DejaVuSans-6e" x="1250.570312"/>
     <use xlink:href="#DejaVuSans-67" x="1313.949219"/>
     <use xlink:href="#DejaVuSans-73" x="1377.425781"/>
    </g>
   </g>
   <g id="text_25">
    <g id="patch_26">
     <path d="M 282.04375 656.928125 
L 401.95625 656.928125 
L 401.95625 647.265625 
L 282.04375 647.265625 
z
" style="fill: #ffffff"/>
    </g>
    <!-- Provides Response Templates -->
    <g transform="translate(283.00375 654.304375) scale(0.08 -0.08)">
     <use xlink:href="#DejaVuSans-50"/>
     <use xlink:href="#DejaVuSans-72" x="58.552734"/>
     <use xlink:href="#DejaVuSans-6f" x="97.416016"/>
     <use xlink:href="#DejaVuSans-76" x="158.597656"/>
     <use xlink:href="#DejaVuSans-69" x="217.777344"/>
     <use xlink:href="#DejaVuSans-64" x="245.560547"/>
     <use xlink:href="#DejaVuSans-65" x="309.037109"/>
     <use xlink:href="#DejaVuSans-73" x="370.560547"/>
     <use xlink:href="#DejaVuSans-20" x="422.660156"/>
     <use xlink:href="#DejaVuSans-52" x="454.447266"/>
     <use xlink:href="#DejaVuSans-65" x="519.429688"/>
     <use xlink:href="#DejaVuSans-73" x="580.953125"/>
     <use xlink:href="#DejaVuSans-70" x="633.052734"/>
     <use xlink:href="#DejaVuSans-6f" x="696.529297"/>
     <use xlink:href="#DejaVuSans-6e" x="757.710938"/>
     <use xlink:href="#DejaVuSans-73" x="821.089844"/>
     <use xlink:href="#DejaVuSans-65" x="873.189453"/>
     <use xlink:href="#DejaVuSans-20" x="934.712891"/>
     <use xlink:href="#DejaVuSans-54" x="966.5"/>
     <use xlink:href="#DejaVuSans-65" x="1010.583984"/>
     <use xlink:href="#DejaVuSans-6d" x="1072.107422"/>
     <use xlink:href="#DejaVuSans-70" x="1169.519531"/>
     <use xlink:href="#DejaVuSans-6c" x="1232.996094"/>
     <use xlink:href="#DejaVuSans-61" x="1260.779297"/>
     <use xlink:href="#DejaVuSans-74" x="1322.058594"/>
     <use xlink:href="#DejaVuSans-65" x="1361.267578"/>
     <use xlink:href="#DejaVuSans-73" x="1422.791016"/>
    </g>
   </g>
   <g id="text_26">
    <g id="patch_27">
     <path d="M 875.885 573.768125 
L 924.115 573.768125 
L 924.115 564.105625 
L 875.885 564.105625 
z
" style="fill: #ffffff"/>
    </g>
    <!-- Stores Logs -->
    <g transform="translate(876.845 571.144375) scale(0.08 -0.08)">
     <use xlink:href="#DejaVuSans-53"/>
     <use xlink:href="#DejaVuSans-74" x="63.476562"/>
     <use xlink:href="#DejaVuSans-6f" x="102.685547"/>
     <use xlink:href="#DejaVuSans-72" x="163.867188"/>
     <use xlink:href="#DejaVuSans-65" x="202.730469"/>
     <use xlink:href="#DejaVuSans-73" x="264.253906"/>
     <use xlink:href="#DejaVuSans-20" x="316.353516"/>
     <use xlink:href="#DejaVuSans-4c" x="348.140625"/>
     <use xlink:href="#DejaVuSans-6f" x="402.103516"/>
     <use xlink:href="#DejaVuSans-67" x="463.285156"/>
     <use xlink:href="#DejaVuSans-73" x="526.761719"/>
    </g>
   </g>
   <g id="text_27">
    <!-- Twitch AI Interaction -->
    <g transform="translate(448.35625 22.396875) scale(0.2 -0.2)">
     <use xlink:href="#DejaVuSans-Bold-54"/>
     <use xlink:href="#DejaVuSans-Bold-77" x="57.212891"/>
     <use xlink:href="#DejaVuSans-Bold-69" x="149.595703"/>
     <use xlink:href="#DejaVuSans-Bold-74" x="183.873047"/>
     <use xlink:href="#DejaVuSans-Bold-63" x="231.675781"/>
     <use xlink:href="#DejaVuSans-Bold-68" x="290.953125"/>
     <use xlink:href="#DejaVuSans-Bold-20" x="362.144531"/>
     <use xlink:href="#DejaVuSans-Bold-41" x="396.958984"/>
     <use xlink:href="#DejaVuSans-Bold-49" x="474.351562"/>
     <use xlink:href="#DejaVuSans-Bold-20" x="511.558594"/>
     <use xlink:href="#DejaVuSans-Bold-49" x="546.373047"/>
     <use xlink:href="#DejaVuSans-Bold-6e" x="583.580078"/>
     <use xlink:href="#DejaVuSans-Bold-74" x="654.771484"/>
     <use xlink:href="#DejaVuSans-Bold-65" x="702.574219"/>
     <use xlink:href="#DejaVuSans-Bold-72" x="770.396484"/>
     <use xlink:href="#DejaVuSans-Bold-61" x="819.712891"/>
     <use xlink:href="#DejaVuSans-Bold-63" x="887.193359"/>
     <use xlink:href="#DejaVuSans-Bold-74" x="946.470703"/>
     <use xlink:href="#DejaVuSans-Bold-69" x="994.273438"/>
     <use xlink:href="#DejaVuSans-Bold-6f" x="1028.550781"/>
     <use xlink:href="#DejaVuSans-Bold-6e" x="1097.251953"/>
    </g>
   </g>
  </g>
 </g>
 <defs>
  <clipPath id="p06f0e7ae47">
   <rect x="7.2" y="28.396875" width="1116" height="831.6"/>
  </clipPath>
 </defs>
</svg>
